<mxfile host="65bd71144e">
    <diagram id="alKpDDmFzaLtJSkP-CMG" name="Page-1">
        <mxGraphModel dx="832" dy="373" grid="1" gridSize="10" guides="1" tooltips="1" connect="1" arrows="1" fold="1" page="1" pageScale="1" pageWidth="827" pageHeight="1169" math="0" shadow="0">
            <root>
                <mxCell id="0"/>
                <mxCell id="1" parent="0"/>
                <mxCell id="2" value="" style="shape=image;verticalLabelPosition=bottom;labelBackgroundColor=default;verticalAlign=top;aspect=fixed;imageAspect=0;image=data:image/png,iVBORw0KGgoAAAANSUhEUgAAAOUAAAKtCAIAAABXPz5pAAAAA3NCSVQICAjb4U/gAAAgAElEQVR4XuzdB5xkVZU/8E4zzAxDTiYwEFREEAURcIgygxJGchQEUf+o+HcxfXB1dV1F111d2VUR0D+GBQODKCA5OICCgkpSVBCQIEoQSQPMTHf/vzVnuDyruqurqqtD9bvvM5+eV/ede9+r83517rkn3e6jjz764osvHhwc7MpH5sCk50DPQw89lME66V9TfsDlHOh54IEHMjMyBzqFAz1ZuHbKq8rPiQM9mQuZAx3EgYzXDnpZ+VGzfM0Y6CgOZPnaUa+r9A+b8Vp6CHQUAzJeO+p1lf5hM15LD4GOYkDGa0e9rtI/bMZr6SHQUQwYE7xOoM/MrVdYYYXp06fXeYa4VIego95guR62r+1fFw5WWmmlbbfddvXVV3/ssccuuOCCpUuXuov27u7u9t4uMFcc1vlee+31+OOPn3vuuXXutckmm/ztb3/761//2t/fX4csX5psHOh90Yte9Oijj7b2WFUiKnDj71ZbbQU0m2222Stf+coNNthgvfXWe9nLXiYQDIwStnp7e9dee+0XvvCFz3/+84Fm3XXXfd7znudJXvrSly5atGjx4sUveMELVl55ZS3RhchcZ511nvOc57zkJS8ZGBgwlGF18at48sknjeNef//735966il/77nnHoMY3zMgfuSRR3p6etC//OUvN7KhDjroIOPffffdyFr77rnXhHBgVHiF9W222ebPf/4zrDgnroDD13jxi19MgIEFybrmmmuuv+yAmJtvvjl9ydmzZ+++++477rijS/PmzSOS586dC22vfvWrwfRPf/rTcccdd9tttz344IN9fX36rrHGGvvvv79fAoC+5jWvIbl33XXXHXbYwc9Alzlz5rj1O9/5zp/97Ge77LILZPsNfOADH/AAurjkZzN//vxVVllFX8/gpob93e9+Z5ysGEwI8lq76aj0AXILKN/1rnfdf//9gLJkyZLiQyxcuPCJJ54gR6MRFp/73Ofee++9ScSSbT/96U9vv/32Lbfc8uqrr77vvvtmzZr1i1/8Yuedd/71r39NlP72t7+FyFe84hVE5g033GAG1/7zn/983333JWUh0qR/xRVXHH/88d/4xjduvfXWGTNm0EPczlPBJdDfeeed4Pi6172OKDUy5YTQdd8NN9zwlltu+ctf/hI/sNZ4l3uNPwdGhVcwAhdgdZCFCYggAkzgC3kgGN/KRGwldNppp6UvCSsh29JfJ3/4wx8OOOAAslbWAwIANbKhpk2bZnx/gZK4dcnhLroQogBqcASBP40OjYSon4ERwNQvx8MgNlpc1VL1Gxv/F5Dv2BQHRoVXd3r44YdJVidFsIoBB7unn36alpkWW/DqYxGsJK4DAQXUX+dgBHAE4d577/3BD37QR+M79CJuzeaUAZgDTYJztdVWMyaaX/7yl1QCl+gh5513nh+J0YhPSq1noEgYwSNRWkhr6vJVV13lI43ZgAiM0BTLMvEEcmC0ePXopJ0jLbQB1zwOr/BBuXQpvh5s3XjjjcARyAYU6ixgAfGvfvUremoISzIPvEhEmkMVX7SHdKRp/PGPfzSCFqP9+Mc/NvsD9KmnnuqOq666qtGMQFugtt51113ua1iqqjWWvjQQOverXvUqjbpnvE4g/pq9dTeRQ7drtluRfubMmaZdaCg2Jlw20ogmQKyXlRBlAIJJ2WJfYhIogfg3v/lN7dPG7fxda621jjjiiB/84AfwmoatpY+WIR9yOOLcPhk40Aa8rrjiivBq7dWW70M6mvEpnVVizy3YDegM9S1QfjxGID6TftKWp8qDTBIOtEEfaO83sYZz1I5JE2AfqG2vaqEKOzJYR2RUhxKMiT+2Q3mRH3vyc2D88ErmmejN6fSHZJRtjUG68whY3bfWvbYX3YPrKy0Ng4DtjLOjjXepvW9uaZYDo/Jvxc2YOb1pq/U69wZW1iV2foanjTfemJZp0g+TapUHPxlQjZYW72lhFEotE+zWW28NtQz+yKKxSgfQWNSAi+fpOaOLO7p6zDHHXHPNNYwY6aqfFneue7lL1S2iSzxhnW+dL7WdA+OkvwI04+h2223nCwAoYcZNCgRUUh6H5GtAtscee6ARGMBTwETg5A1veANKNjItBoFUBCxTLBKMBhzCbAK///3vr7vuuoQ244gWYE8g0S3R3AX9TTfdxEnGW8bQZgRWWKauTTfdFBlz7EYbbcSsy8gl9sBvSRgDUBrf03LLbbHFFs7ZxVgn+MaM4Md26aWXIs66cttBWWfA8dMHiOGQUuQiWymUAAFPKUSm54Mz1n4WWeg8/PDD2QQ4DqCNxQ3x5ptvTjyDkUCF0CgY43S5/vrroZYHK0FHo2FhESIhlWeBVcGPJEJwWGdh/fWvfz2RL4aBI5cEJU1BEJppGlAOrwb0YKYCN3XJI/EbG1YX+ObszapCHWCN0aVxkq/DPT1EVumyEYYCke9///udE3jf/OY3ST7yEtqMQ+iCF0GrkVA0X5N/nFWkLCtYUbvgTeDl4tACUHFe9BDuAwQErb9HHXUU2DkBd2gOM1k8D9w7CXWWdcyvi/PMX7ZhUplrzY8HPfk63PfK7WPEgQnGa+23Ij759JNbn1oskksjOQd/1mqEH4w6WLhcNUcDHH3A1By6b4xJlhtECzKHj9FitAhCoDwIxwkZSfYbNmgQAKv2qCxmEMIYRukbgmz4z2gv1157rZ/Km970pmLEWe13yS1t58A44RUUCEWqJKwUv4PXX4y+RRYhAWicwNlZZ5117LHHAhY4XnLJJWbk/fbbj4YAXpB05ZVX0m6pwlQIwE2DE42BVOMYxHl8JG4pFUceeSTZTDpSZ8U9fuQjHyGA6awGpJ7SQzyqj0SvwxMS9jRvt+bI9cMgp+kY1NnLLrus7e8jD1ifA+Pn3zLvC3KNSTY9E4iYWIuTOBrgAy9KJ4EKggSeCZoXIOBOxIK1LoQrMsBFA9wwxP4AiK7SNRcsWKBdF7ITmUZSE5lGotoD+A24OzltBO0ej4sOjQcweEhl942+aBAg87RuYQQDxgj1+ZuvtpcD44fX9j537WihdEZ7SNO8cq/lUqe3jJM+MA5sCvU03SiDdRx4Pv63GD971vh/t3zHqceBqYBXOnGVWjz13lP+RsGB8dMHTNBsmVYtljIsRMU1VoMvAyitvRCHSYECYJFuDRSJBsxP1NYGh8pkHcqB8cMrsIqktvpmIWJ1j9x/yLOEL/IOAUBbj8M0LFqJ+wjcYSKVTmiBz5AUS3VZ46yhaJgUItcAoNkNiok3Hfpi8mMPyYGxxSsRGOsef7k3X/va1xKBoMbwThyyDQkeEBWQngyZLG3Zi5F0BdZ8obxWwM3qGfYsji6uVH25CaKjH0CYmfh4yVr4llKmccgvnBs7mgNt1l9jjua9NO/DnHi8tE53QkyyzAsGYLkkQV0Fvpjig4lmfBUJdOSdlyXLyyqyhLuVBFVxg2ef7dNBlPLNOtAblpdV9QMfhRPI6yLIBQZ4ko5+Mfnhh+RA++UrPz4/O3eUv7IOi0kBBCQPU/hU42l4NcGXiA14AZ8TYpWIBVxBAsg0xuGc18CY3FqgTHMIh1ZcBWjjiA1QBUO7xiG/cG7saA60Ga9QQsIRhKSdGd95knPUACqpg28z9IS4xMPJL5qWX0Qm5BG6xKryFrxW4vc4ovwMZGXRYklfBOZ9v4ToZRwHtYGgRQ/lzkVddfSLyQ8/JAfajFf3gC3qIxe8WD7iMO4KT0Sm4gCUy2KMCIlbFadCwRUJBZQkMcyBL21VjBWw0iWAnngW9Uc9JWgN7sTg9Fe300s8l7+Ih/y2ubHTOTAm/tgQnFhTnJQ1UmrprObxxDX4i9VStHDff+ELX/if//kfMJW6bZmvC7ACsXNYNyDRy+lPTutIyrIGmP0JWgRiWMWnCgPIeO10XA73/O2XrwFToLSoKhpEQc3HKF403NMguPDCCyE1olGRASLBWaSH1PSxKmMWUtuVVj7cE+b2ieVAm+0D6ctY0VcFYjfyPeH18ssvT1pEI10yTak4MCbyFQdbXp4nyVqq15C/bIMcGCv52uDtR0NGISaPk65cO1TFarDsqL00YktrvUYcNhOMkgOdilf6sehsuQCMCcOxgEft4IMPLi7vhqOsareMU/SYHa1B+kw2bhyY7HjlP5BdsOH06Sv+YyFBDi2GrShsSBZSP5IoTScsBggoGEGQaHxkfwiyRBxXg++6cDpwAoeULXZsWc8Ztzc6tW80VvprW7gGg1vMmvWZ5z9/lZ4e5WQ/f//9v1y0CGIkA0oEl8PtnA1LCri/rArf/va3P/3pT6v3Dcof/vCH1UaWe/31r39dOusb3/hGyzjGBw6wffbZR7o2069LnLe77bYbej6OE044gecixlflgCODfe3Nb34zCS3OQb6XXDFD8SSffvrpis62EGLWFraUeZBJjde+7u5j7cmxzLn66p6eQ1db7UaVjbu6GK0ITuJTOXki8OSTT2bkgjbw4lPgWtMIjgxqjLXcXWb2L33pS2SqiR5wBYV99rOfhUjRXiy18PeJT3zCR6E2khahASX7RhQ0FgsmG0yAjqxGPrZTTjkFgVxw7oyiZa3MGBrP7z6p8WqhtM4z+bTKAczu7Z3Z0/PYsiDXNJuLmKFrciVwa7GgceHutNNOkPqTn/wkyCBPiAx/G/mqlzgvjgZQE7egL6cxk7B1m0ZuiFAV4gXAMeAGgZ8BN5uk2QhchPsWrHXj+V6n6r0mu/56/qOPPikEkaNhyZIbnnzy0cJ2WbAFZ7SC888//8tf/jKhSwyrgcVbq5SLEgGhd4ImfZSIlcktdAHgINvsL9QGCrnHQkmN0SCbRze0W2LYjA/TAndEfgGouDP+OeOLT/ALmaqYmMzfa6zqvZmIybOif6sFLhCkSq88MTj4kEIEjzzy/YcftlFGrHiMD0BwA6YEqtJDcAmsEanIJUYTJS/BK7ZX2HPPPS3RzOy2l4E/OqvQGQXjwQ6Z1RUxTAnWUQUkHwH3jjvusOQiVqkK6mUYBw2dAV7POOOM2orKLXzB3KVZDoxJ/ICHIMA4S8W+NPtAtfQh/6I9Lc9DHyh+RBAfgz6d1zaiTDS1xFpCMPsbJ9ES59E3LtU+am4Zaw5Mav21CqNFXlQhxsd0dcjzYiPK9LGWOFqKBFXEVUON9RvK4xc5MNn11/y2MgcyXjMGOpUDHSlfrd/Z8K2ThuN6lMUc7mqx3aqr8fndfY3cOH0jD5BpmuJAR+IVUtmnhAcUl2Lpa8OTJbzcmCGvFrmDwPKfeSs1cnRxfQ3XMTb8RtMUizNxGzkwyddbg9N6B1/9vKfWnt1/9yN9N/9lhaUDlR8YSxZjPtHIOOovOxR3ANsTpHIHMEXBK9uq0gTMFPLA2PxdZT1lbXXwwbJdRJQtiyzrbOSXS8rl5nVw5HIN6GtwZjLw5QFm6oq8NAk8jLhtfAd5qMY5MKnx2tPdtcuGT7z1NY+sOav/joenfef6lS++VdxLt3kZRtnzOQuY9CHPieAB9QcgTyABCyt/ldwYri9gld4t85EKAX+wzubKmxA8YiEmUIEb5UknncRxBd8oQRNwGVmhnAMsPAVVpT0a53KmbBcHJrU+0NM9eMjmj27+vKfXW23p1i98at5Ln5g5rRLMCnMmcS4DwYQkJTcBzDHm26tDGIqDUARNUlY7SUx5UJc4EmgFrHAxFFMYhBBwIhC6kKoisatEKcj6YUhp9NdoxLPggawJtAt2LY8zqeUrm+pKKywvidXXMzhz2kBV6HUkhJmgSVnAIh3N6eQuEIfOAKPcVLQFLSZx2IVLYCVik5JKHhPGanBEGqNLCAwIuGSzS3QD6HeVXG+Z0bljWzgwqV9A/2DX925Y6cml4gq77n207/LbVly8dNgqGMBEsgrQ5usXP0BP5UQlhi2SFCWgPxC3UEsx4JjVctBBB8UOMImPECxflxzVvXbJVdvSlheQB2mKA5M6fmCwq/vOh6dde/fM6+6eccaNK11z18zF/fBaCc0mAklNwi+qG9EsydHw+xOQCr34CK8UU8svM76PnMOmezSIyWD4Jn3N9USy0eDbiQFh2nkIXbewGqO/krUEMK0glm5t8TM39Z4ycXCgA+IHertZCbqW9Hf1Dy4XrqZ+0z3UwpyJm1YAlESjFrO2q/Dk3CXmUlM5BGuJLtqdxCWNahe4aoQgixMjaDS4v4g1anHEHYu6RIbROHNgUuuvwQsw7f/H2D24ARpXU4Q/iRjEVUt4ZEHpajqJqDH41hh/hzyJwVOv5Q9TCGgc51eVb4cDk1p/zW8oc6CKAxmvGRKdxIES4ZUCGgYpKilt1cc6LyoU1iAItTUbs+qwa9wudYD+GjijdMJNFV8Cc9pjMRRXAUtLECdQ6i5NgH9BmoDkAn6EE088kQEBcaizqa+PAM2hZenG+BDtc+fONZS6s4y4xS4B6xih+AOofdRxe6NT+0aTHa8W/txOzKhsSexKsTyCBi3w5LDAAhfuqLA6wVmUhGd4smDikmUEIE1156wCUIZYFlaVPRmzZMtwHxjBVcRRyJuFy+pNtWRX+Xhjb4+oUGvtBfG8XLJudPFs3LYsDExdfApurcW9mMDi7lMbOhPy7SY1Xkks7tO3vOUtcAmOZ555JsdpsEnNAfZ/0g6qgANWWE/t5M1foBdE8h0oNPvRj37UCRplB9hiwQsuRckAHDurDYthi+9APhZTK2KGW4C76KKLuAw4eAUe6OiOYgmA1Y2UIABoIlZit5ADOYweTDQMZEvt8vPwi3J8//vfryqrOCFvd+rddFL7C8zL9iaGNhDkSvVX2YGYfIEVwsDCHh5nn322EAKRgbaaJ3rtWQxbMhBBTSXuz33uc7qIg4FXg9ilQ+CB+hdajK8L0Siqi4MAcM34PAv8C6QyKQu48cqNE1qHLmoUBM1xxx1nr2QjCE4gWV3ijLj44ov9ePwqeImnHlwm/BtNavmKO0m5BBcgKC56QAou/UXjEjSb69VuieCVoERA2rmKpqhfGhmByV2YLOEd+COPbUejkbhFDH9oSNn0kpBpBG7qb5QFR6AlHswtQDw9zIS/2in5AJMarzCqHCwFkUQ07RKNABGwo3Q6EFAJQBZiTNMoTfRQFdvOAKtGrw1kteuri0bnuhDDNF1qKBXW3O0vGUlAwp/DsPRU4xCWyWWAHkBVdqHpOlm4cCH1IAptaCRlA6+8u6FnT0nETOyXmtT6ADjGtgXW6ddddx35l8StE/O7hQ7kEXUgQhO1ogJcAtLkTp3VDpohCAUA0B9M/eAVqyU0WB8LMsspBFAIkQbx0YAQGSIcGeDCIlAiECVDzRUMjlLNIkL96quvFpkAox7J+gylu+SY7rFAdgfEDyTbUHFCT421TAlFs7a9qiVGqzNOoqdAb7/99mQwAQ/B0a57/b5V6seIz5MJGuHApNYHEjJqv0kdNNS51NQ4iZi8pBOTzRSD4uBN3aj21rmlBQ50AF5b+Fbt7WJmz5N7e1na8mgl8se2zKPccfJwYKrhlYmAU6COZunScFfjUu3VOl0mz4ssyZN0AF4FDQTE6iMprjIOHHjggfHyoiX1cgLNc+bMkT1bO5QuPFviBFgMqjoyAnCzMWyVBBOT+WtOansWxnXPnLnqPvusuueevaussuTuuweXLImFOWOnQq28pjRLe3jzhVrFW8L7yyYqnICnlHWJkUu2lqrwMMpixSy13377wZ9AAkmzam276jwsrMbk+2WxYpPiP7PAQs874C5wzIIm5CAbVicWzZNbvsrbPvLItd///lUPPHCtY49d7eCDE7OgjceVQx9YHYIE/CU7GU1BkPFVeMARRxxhL09Q5hTQUcgBa5QutqXlmFUpg51VO5EcvwFwBHEuA2ZdIQHktNLyujDcwrQfQzELfGJfW2nvPrnxamsNklXx9RVXnL7uurO23LL3mb1nzexM9CIECE4bYyhELFCQTIU8YGXPZyvlr3JVJJeoAKZ+szy5y+PFmM9b5ly9AgleEOySjvwIrvqIQBotpysaQxHhWojn5OgqLVwm/ItPdrz2P/roch7BlFCBZ/K0NEIPb5YJGnahLVIOtQMZoYicQzXSuSISAI0u2h0kpR04vvGNb4h6MddHsIEZ36VwofEARwgsSazRsPF3wl9YyR9gUuuvILL0vvtm77BDd1/f07fe+uBJJy2+446w0tMvgY8UNO/vtddePqoKr+4VBMOfjyoUCSQQh0UlsCcRYUlGErSmeHoqHNtrjiJLANtkRuP+++/vRByWpRX9dcstt7RjhwcQUkgTMFpUi+c7KDliJvbrT3Z/LMnWu+qqCrstvuuu/ocfTi4lQpQgtJzylywUChjFBMzvIleQaaQwABy5S0OFYwT+isaiIdBQyVR4pbDCMcsAOQr6RDX7QBR0cSn2lqEJUGdd0p78sRP72kp798mO19K+mPzFh+TA5NZfh3zk3FhiDmS8lvjld+BXnyJ4TXrthLyCbDoYN7ZPEbyyvLJeWUuNf4lWPxVWhbCIjdtrK+2NOgCvfV3TVupdra97WtVLsqhnY7Js1w6vDAJ8pxJZtWvRblHP8gpPzq30QTlOmAICXj4yJsQIejmYHYA+3Yi1gXkhRnDVOWI3dZ4MEVp4cV0qLYbG84tP9vjXNfuet83K81brW+fPi+/41eMLH1r6l+BOVGmFUU4pSbNsUsyx9tsWnMXsygIFuKxXrvJsCQNgpYJRzgUGVBEC/Le8VlAO0KAWCdyRGwOIBuSDdSPQtL03w5awBK4viI8iA4byUSMbmaE0Zvk6Pqid1PK1p6t37moHHLz2sfPXeNuBa/3fOSvv3v1MgTrxAwz7AARtsCJfxTksQmQAV5AKOSrflS+As0BQAVEqRIYEtdOx7q4SuvqKemG+5WIAX34viOd6CJUU4tloEYhVcCMdDeUWYhKAnvX30EMPzcrr+CA17jLJ8dqz1UpvmNY9w/6Zq/at+bJZr57evXzaJf/IUXMxmIZsA1ORA/ITJRKKfWHb58QSDBA1YKQHigTgqZIWy49AiBKK/kIbMudOeMu4uGzFAZSBQoOQoD5yExicb0LgCxo/DGJV7m79WNvxfJEludekxutg1+BfllQqWEHPksGnH1n6UH9Xpeyrj3RK7iioVS8jlXWHJzM4QWgGB1NgJQJhDn1EBQQK4y9pSkYahDJqNAe1QYu/Gp2Qpn4MpLLR/DAi/jWNE2PqVRKgTJKvOan114Gu/h8+eMrA4MA609a9/anfXPL3BUsGFgdESFMAMrlTTzlXiU8yTyigiZs4VGSFhkAlAFa54LoQohRWgYUQLDjLXzqudT31VHiXc+8DmakfNC+88EIwFVpgTLi84IILuHDdzo1QUhLczoCwK0DMXyNonCRvdGo/xmT3x/Z29a4zfb2ZPbMf63/4wSX3QXC8D6iy3CH/AMhiy7xMmoIO6WglBFiKCdBQRa646sQlECd0IZXaCl4+6mW9RWcFa0EzaFQ5AERKBSHtx2C5Rvr6G1FaFA+KgY8CEghd525Hx7BQI+lD9E5tuEz4t5vseB0fBhGi9pqDP7Wx8hQ/Pjxv7S6TWh9o7Su10AtGFY/RMYO1Be6NZ5eM1+XczolZ4wm7lu81qe0DLX+r3HGqciDjdaq+2an5vcZVH+DQZ9eMOn7+UhbDFDo1WZu/1RhwYKzwWgtElvx//dd/ZQliUVKAUnYUyDI8xQYB6asxVDlAOZKn2ZWcs4OyJWlnM9IrW47GAAmdMWT78QpYwMo86S+HJzNncIKlE2R9ZPvk+ueXQnDZZZep5g7BQaPFngJs/jraEcBQQp8AWp6gvD/tzJyM+ezzeSHfGfhq91O2Ga8AB5QmfZ4kxnwnilMkWeuEVZ/lKHmDIpUvfEW+GoDadUg5dhI0CrHzMx1//PGqtvNaffazn+WO4mpqNxPyeB3DgTbjldgjGmU/CxMREgWsXJcJr3DJO8oLKugpOASXME3ERsHKkLgKsWi3hQa3E9wz44cfi+NKSWvjdwx384O2mwPttw/QBC655BLTt1AmmEu6Jk1AC4WVyCRf43AV/qgK8b2cQOf5559v3t9qq62iEaVePKIiVEhfcG83E/J4HcOBMZFVhOLpp59eVVqCkrpgwQJOecumiADEJFikHiT91UdqgIhVf6GW5hoBJfYgEL8HwYAL9Fl57Rh8tftBxyp+gKRMSmr9Z6YDFPHnI5tALMt0DJuXvw5jksdJYNcfNl+dkhxovz4QbJKpkoRofcZVCUsfw2IVGA3I+gvHQJzBWp+ZU/7qWOFV5F4VEKc8K/MXHAcOjBVex+HR8y1KyIGM1xK+9A7+ypMLr5TU4tECX3XXy19mMr7f+NjCOLnL5OTAJMIrbMkcVKuVD9bBp9UUdhNS5WCxJDCcKQQrm6WK74ks2jOgJycuh3uqMbG/Dnez+u3WZ4oA7Ljjjjy6YCRagGlWo3wpKdRyqtICTpwX9yyzl+Rsuaw+MtkyHUjFllBl3wGmX5lYPBdsatwTChSzOchG9ADSBv0q2HelvrDmqmbsqhPbwucFYv0XNBmuTiK8YgcYRRmLOFfExQm8cihw8Aa/WB7UbhFFQHZCnp0ybfnCzQuXRLLIGPDlJEPGv6DmgO1iWNYcSr8LlLHNBogjlpCI+KijjlKDWzVtzl6pthmykwGUdZ5hcuG1+KCgE6WsCM5iTStBCJxeUY4lomkBWoCi0BlGX45cwhVMhRz4CNZiFU488UQprNy5ICsmQbkhslmMGMT7SWgkjIU61GFTvjRJODCJ9NcGOQJ58+bNk8xNHMKodRVAw6h4WZM+BYAukZKxwungUlQSoNdyOjgHepeI7Y997GOQuvfee4tjbPABMtkEcmBy4TU8WMVllnNwTEG0OAVzEdNNLlJGoVZsjTXWMcccc/DBB7sq1GvPPfeMmZ1i6jjyyCNVvKJsiD1I6y0nVIIPf/jDpGwkO0zga8i3bpADYxU/oBRFLHcafA5kAM4Q9AsAACAASURBVGSatswyjyc9UiPpaG1EFqZGU7worcCidRj4UkDBOipbMWOpnyU0TEEhUz9VVZk3iLR6MxoNwYNRZ+m+tF6QRaziC/qsvDb+siaKchLhtSkWQF4RXiE1iyivujocFmOcqtGaepJMPJ4cmLzrrfpcqMJfUx+LI0fH4dBc/xny1fHnwOTSX8f/++c7dhYHMl7zRpudhNiS4pUVLCJ0WXbZGareGIuBJZ0lYye9yXI865TA6yAjl9za6jfGCCCKIPJsATRiCfxlT2BDkArGiMtfwPjKucAJnPozU0jEZeil1+qeSnhX3yB/HncOdOp6q8ioV2zcvekrbQLTdfNvBn91fSU+ywGXSmQyZrFkKfTOLuvcJvP2kGEgI1M5ZrltmcPgkueWncum9AIS9GXuZSzTEWrtdAC1isFL9EU/7i8o3/AfONDxeH3B87ve9tbenXewzUvXr64f+NA/L7nn3so3DICSlIIKGFnhUigMRy68wmL4IMLpRSVgz0K/zz77ICCVyVTxNHxgJLEi3VwSaBpM78n4GlMO1EyiY3q3MRh8k1f0vGrTnlkzu/p6u7d4dc/mmy//RvAndAYiicnYeiBstPEI9uQQacDdRWSKdBH4ooS8XWLQJDJSlkMBJbCS1hmvY/D2mh6y4/G6aNFgbB0QSHv88cr/ZnChMMp2CDAI/AEfXZastYqKOlxQSI6ijDxef527RACHygugsB614YXXGLBp7uYO7eZAx+P1xpsGf3xB/z33Dj7wt8Ezzur/9fUDYAejgraorZb5TpQvsPkRNcB2XGZ5/ljClQ+WwxalS/4CtOIx5ChPrwUWPtMZQJYu4S8aYrjdzM/jNc2BTvXHFr/o2mt1rbtud19v1113D963fP/Div5KlEIevBKTwMoaQHDCJaGrUfwAmoiFFVzr3MLL7O8vU5eaSIISb7jhBoP4ASj7Ba8hqpvmce7QPg5MBbzixrKsLcU12sAY0lTSAbOAoNiqWp9tGD0PMToOdLx9IL5+W5AaQ1EDiFs6QxSgHR17c+82c2CK4LW9XKEzhKk1x8G0l7GjH63j11ujZ4ERQjFN6inTAU9BpD22Zfw8SLs4MBXw+gzO/L/cuVUFwdr2IoGr3Arve9/7Kv2XjWCVxkoQhZGLfdvF9DxOyxzoVVV4lKuKsKVXVc+0xJYRMC4ve/DlL+85+h29b9q1Vw36v/4V4CrLLg+glIHVvY1kPQk7AHeAtBlZh1IOmQg4rhD4y+wlW0aSLTMCf2xYYfkadNF9/vz5zF7MC1FRuWVG545t4UBny1e/hxe/qPv4j/e95YC+ffbo/dYp01+43vLJnelKWiIjv/1j4VIsgY/oWbKkFrL/S/aSaUhPBVluWL83KTHBU1iXJIPm9a9/vVWXQ4pYruvdFsCNcpDOxitZyBm75hrdPT1Ou2fO6N5mm95YJPlLiNpamxmVjwpeIVKxgksvvdSEAM1MqlK6yVReWQTWWHYuLjpdIdtBuBqKx4HdYJS8zt1Hz4HOxit5ef8Dg489zhdVYcWiJ7vuvXe5DupjxA0KHqCemtzBjkpqiud65eU666yz1K3nfd19990Dpgpt8BrwI8RHNFddddW5557Li6vqDHfu6NmdRxglBzrbngWC11438OMLl1bis6Z3/+KX/T+7uuKPDaaY1nfYYQfgI1kXLlxoByWHq+Qo0QumtFJzvVhBBP6KMFTR6NBDD/3Rj35kBPAVdkijANwowzFKXufuo+dAx/u3iFOR2i96oWrx3XfcqVLB8j22BWL/8z//83/8x39YOZnN4ZKUjWAAs7+PzFURXQC+BhEdS7Jae1mW6UKg2ujLRgx8XdCsC81h9OzOI4ySA50tX3158pIN6o47nVYsA8nRBWS8/wCXam1ooaoGv9CJBxCgndjHaODwkXNLDQQdA9ZKbo2Sxbl7GznQ8fK1Di/or61lBFAhKlpwwZpb5y750nhyoOPlax1mtQZWA2ZTQB2uTuylzrYP1OedSf9Z/aA+6fBXSVkqLPdspCsOT5ivjAcHpgJeabDPe27Xui9ghX22mIDVFWuAFRVhGZP7kH/xWDuaIIuPVcoAY60V2DJFefkxHm8m32MoDnS8PjCtb3D+nr3bbdvDnnXdr/r/37cq6S0UUH7m/fffX8oAHwHDlsJv4rUdmMBQ5YS8VKmY6cDqygGJl19+uTBCWTQEKq9YbGALpsAK/XpxdzHfcjQoLJf2ZByKq7ltrDjQ8fJVvuGB+/bO27l3px1633Z436s2W75U4pqCOUkv7APMqByqQljWX3/9qF7IFKBdaAEBzE8L1oB7wAEHMHL5yIzAegCmQIzxTGMMYdyztAJGAz4Fx1i9kDxuXQ50PF7XW7d7rTUqxldOgtVX615//YrOCmeCeBj55bcAH+AquMlBxcvF8kqIKtD5s5/9DP64W7mvyFdRBCyvlmgsWcoRSP5O6m8A1CBa+HXBd/Rqcd2Xki8Oy4GO1wf+cNvA3x9VeXgQXp9aPHjTTRVtNUGNYiCuCkC33XZbQlQsASASnExdRCkXgKuOyy67TBfgpsWiAWsIVjWWAwxYQ8qSx/bk0IUYpjDolc0Iw8JqzC50PF5vu23w8ycs3XO33pmzun98/tLb/ri8LizvAEVzl112IS+5ADhgwUs9AXglIA8//HAOLVuAx1YIfLBwSSuFb0EwAE3QwjcPrdjtUFXpu0DPPYuGOpHBOmaYrDfwVPAX9PUNrrhid0931+NPDC5Zsjx4gLy0SLK0p8ia6AUSiB5UF8MJFdbu9IQoJZW8FJ0dBQeITCgnd8PRAKZiCB12mPFXQQ2CNi5RNkLo1mNtvjYGHOh4+YonS5cKHQzePJsgC0/iVBykKcMWWQujiEI0+hjeVy0RN5h4SxKnc1KWPAZWXtlUemMM3kIeslEOTAX5OuJ3jRUYslBtR6SvIojVVRaozfJtLOingnwdkS8Jaq2t6zNSR+TwuBF0vD1r3DiVbzQZOJDxOhneQn6GRjkw1fQBq3vLI8amSbs8YjhjZLAQbPQVZboCB6YUXpmlpGWLFogEGB4pwQSW/7XgiBrFjFmxAos6cD5ScNlZwZ2RlXEgKm868RvQAmpoov6mFvayyFnXHld1jDQEV/UNYidhCIuPPMD8wyxrhnUvfT1eVpEb/FVOKbwqLSiPBXTghqM1ErPUgLcbclppORFLwCILKLfffjtXAk+snERdGK1YZOfMmQPonLecW2JcGGUlybBqkdy6+KjcNpxJVPQXXrl23ZfHC+YcdlF0Cz5ePxsmXrfwJODLB+FXJOxGPA2XhGdjUDOILm5nr/sM2UYg23l49V4jkdWMDxPQCWQh85z7znAGCkAjlgox+SoxRthAsIODitMLdBAQkDBHJAvFgjk1B84444yDDjroxz/+MUxDGH8Y4EIbCy5i4Ntpp51gFMQhGHAV4CA1ESNwFychnu14z68maEH6uC5oZIm5r79EuwFJdBFkc+fOFT4mWIwvLb5CI++szDSdh1dvC+YIMFEBMgQFtZCL6WUDKNyAGkzEewVukQCiW0LEkqzQI5JQpJVxNttsM2EDF110kVn75JNPXrBgAfSfd955oAaUUg65ZEHW+FJnf/KTnwjUAi8y2B71duBwSQSMZwA4tQ4Qi6EBaHM9cPOcQblfkb5+EsJotBDAHlvqGMgqg4zYD6w1Q1sJgdt5ePVqeafADtSIWGIsVEYvzwm8wp94gDS9muhJU3iNtxuJslHLTQiBj/7CNzdY1GXSUZf0N3rBHHCjAThYdF/C240gz8OgEQ0TXSDbQcr6wfhFwaL2+DnFX4MHjl0ibpVEgHjQpxWUEH/NfuXOw6tvSCaJooIG79jf9J2dq4IBdjTOhNdiWixKIHMIZoUnIpa0o1+asqkWyg7ExA1SpCwggiYdlM7qR2L6pr9CKiVBEY1NNtmEoNVuQo8sBnB0VRfDmvT9DCyk9CV96STxQ4qW0ChQ+g14PJI4/eSafX9lo+9Uf2yCY9VMShCSgoRWageFYrSAFwxJFE3gI9WAm6Q0iRO0kd7tXGQMLYLQ1RGkUCq5BYuApcUSLdZzLoGmlZPlGnXCryUp1pZfHgOxMHAqBFHqRqLF9QVZvxaQdS6E3OBoYLpsyGvt+3YwXskwIi2VF2jt+zfSiw5q/QSalNSsaDbCsbGj6Uh9INgBr2TnOODVXdihTN8ZrGMHxAZH7mC8Qs/4AIjuQZ1tkKGZbEw5UMb4AdpnHEkJborF0ctfB1U4jL5NjZCJW+ZAB8vX1r6zRY8UA3YokGVe5Z0KjaK+tAZNBAmpCiBLnrGcUkWeIZZNLQhae6Tcq3EOlAuvUMXRYJdDC3k8YiUAtVi0ffOb37SiSgpGOAWYUZn6ecus8WNPOQt/AlX9eOatr33tawwRfKq8XOxiKMdHP2n87U49ynLh1ftjdnWwIjlnkDKhx8wuIRYi4wWzZEGhc7YnwphZILxiDAW2PyBZGU0B1F9C2s5yHLMHHnggs24aYeoBZZJ8ozLqr0XWk4jkpSMQHJcYR5lmCVdeWZoDV4KroTCgJG4Za7lSKRIaKRU8wJwIsQv4JHmvU/UxSofX0EFrX2exXewLDRVq5cRSEghReCVcyd2ANWIOghhkuAFrb5FbRs+B0ukD/Ey8TbWMC0d/KKAMrpEFHmKV79cqzcZGevGvAihpSmfll4qqGVpI3AgPqB05t7SRAx3s36J9AhYp2BQ7yEWLJ1N8sRdfAB9ssUVAjBUV1Jr9gZJwVbUgAhcjnOqlL30pvdZQBDDFgNrAYZuiFpt6pEzcOAdKh9fGWZMpJyEHSqe/TsJ3kB+pcQ5kvDbOq0w58Rwo3XqLQYoyaiFl1c+86u/Ev4T8BA1zoFx4tZCXmyrUmmXKcp4z1mop/FtVObRFK1XyxNZytc6lIK5DkJ1htfwcsaVceMUOfiw7G8qdgkgZWixT8Mo+IMcwVYCDJNYAlE6kKojI5sXlvGUH4Brg1hJwzcJgEFaFiPWWnoVA6HdURDS4E7t9izHw8zCa38N1112nkT9MPoxgSCk6xeSIEV9VJsCB0uGVPSts/rDIJuXABfACxIRX0QUCtLlqWbLAEbwAFKZlF3J6Sbrabbfd5IjLpwVQElpdeXEI8C3qgFXLCVNX5M8oSI/MyMbxw4BafZVHdtWTSG/MUrap32Hp8Docd0i+dAlepWtL0oK2yICl5tqNg5FVfQOI9FHBC9iFVz4waS2yX4Be7XmOXNmzoguMBuiwS4gCqMADglYqL/EsyRuCJXMP9zC5fTgOZPvAEJyBPIiMyBiYs0QjBf0lEbXHQg0NiQt8LjlxVbuP2v2lOfjonEwlzqOvcy18EG7Js5Ayzod4gtw0DAdKJ1/luxKQEU+YeAJhRGn6KO2WmNx7771N3zRUwlJRlkMOOYRhQTYs/1Ykjofiq5ePsWjzF0zB198Iq1Uk2S5Ib3vb2+BegQLAdVUXlDkndhhM1msul3+LeIPU2HyryBXYsqgKJGknMqkB5nonsGvuFudKnYVCiazIjCB0MCrHm+5RcguTl1AI+pZiohQAVHcuXKqC0dxCvAEaDyDykPphEKu9rL/Wg2fNtXLhtebr54YO40DWXzvshZX8cTNeSw6ADvv6pcMrFTZeUToZ8o1ZGIVHoD5ZGirW/kMOlRvbyIHS4ZV7aZ999jnssMP8FUELl44qhnI+Ccf+t3/7NyXlrIfiSDRVKyQfrag++clPNoLsNr65cg5VLnsWaDLm2/8tMMeYzyxANLIAnHPOOQE4l6zcOWDVdGHMgmnl3Bi2rOWt/X3kmmLS8pGhIGpvsQYwIJQTQOP8rcuF1yQsnUCnyoQOHIdjzn2e1eA++UpkOneVN5U1inFKVow8WHvUCwmAZsZU9eH+/d//nX9LkneV0B3nt1ie25ULr8X3WoWwlB8Lx2yuhCupCcfMpWz+xCfUyu0mWUXAsLmKKHBJzYHTTz+dxH3/+99fHtBM4DetVt0m8FHG4dbNqpgcBHxadADWfmEuEGwRBqawbqNkSgIPLWEsOrHZkcfhy07JW5RLvkIVf6xYqirfPTgWUwXBlL9KC4+USCu4RI8GRikG3LkQ7CrtVgF4NQroA7k69vj8PEqHVwEAQgVIzSJ/obMYihq1iy2nOF1B3NQPsiIKaK6WXKJmrc/Etopc+da3viUiUSyiq1mFHQfIZn/sqJgMzbF0y2AdFR8b7lwu/bVhtjRKGDDNYG2UX6Omy3gdNQvzAOPIgdLh1QxePIZktdUV69VopGbcYsjBc+NoOFCu9RYI2jtO+gpEikyV02JdHzooJiaAchYI0JaBaJk1JHN1SfSpe6I0Dq8v261dNkcD+iFvXfLGcuGVrVSxYkYoYIJFVdys9AEOas8+++yAgo+MVgDHhsDdyjjAgMWzxWjFEBZ5hSwMTApbb711yjhAL5RbyoCKWn4MO++8M6MsOwN/b4ZsG39j5dIHIAmMoJad34wPu1xWUghtr5XqYybmSigAaFYtXllSWQVjghmUFdc2gogZYOVBeMc73sGDYAtjSdsyDsQk+KtXC7Xo2vhep+pQ5cJr1VvkgwVTB4TVRmkxtRKi5KW8Vn9JVnVh7Z1JMCNmdlVAgD/WIADN7xV7cAI0AtZc9MR2Fq7t/eWUSx9oineiAohV/gWIJCypBGJfQPOqq66i+xKxqhNEfixQ0iIiDxZqnYv5itzDjNemeD4icbnwapp2cLcWYQRe4BjprMGvuEqIKvFOZ6Cb8sTCKKlJKxBI4ETLu9/9bt5dAlUCrQ0OaAgivCgJxgdWii9w5y0RR4RgUwSl82+JbTW5k4JFNnG0FhdGklettDhjqaQRKgCXMErZVaZFpCx6I1BnSVlRhQQt1JLHoUJYnxnc+sxirpgm3tSLycRDcqB0eMWF2jk67FNDM+iZbbfs4a2U0He/+12hhsRnGif1Da1gyEFyY7s4UC59ILhWB521bA1if9UjUlbISYJ71ThNDVt7o9zSCAdKbR9ohEFBk2RnrWxufJBMOXoOlA6vVlFUT0dKKBgNE8lUmmutLWw0Y+a+dThQLn0ARi2YrOU5DiyhZLZYIcFcGA3qsGm4S8Ttnnvuacs4ow1Hk9vbyIFy4dVif4899njta18Lo6z69FErfedMAWptp7mefQCmLargm9kfpYgCHgEn1vuMBgpgATpzlQKaPAiCtRFwLmgnbtkWSFyZXuwG7siRBs2OWKW18eWVcKhy4ZUrKzJhQJMpyno/XjkUHnPMMQmvKmWzrV5//fWQxxogfWDbbbdV/JWH9qyzzlK38IwzzmCFtTn3Rz7yEZj2AwhngatcZeITeH1hl11WKWMtCr7G3l0lRFh7v3Lp9NfEvuLKqVisGAHpyHR62mmnyYxlRqXsAp+K72Qn8Im6Ynnl+lKCABlHg0unnnoqScy5EJ4wbgKU4M53IM5LMe7hQr3a+zqn/Gjlkq8Nvk4aAthBGCwCHEeAqV8wQGx8/Itf/MJu3IIKqK0BeuqvLohN/ZxhwgzcyG/AVUqCq9mq0CDnRyQrF14pneZlGKpa0RONRU7BaBQTpnE6gTz0OorGAj6yViM/mYgCvcBUXIFILgoD5QFYtbgFjDpBn9XWEVHYOEG58ApwV1xxxe23316L16IIpM7SOIlMCylRrVZOUmFpBVwGFljwd/7555vugRKN6T7gS+5atOlLxJLNVALnIgqqfgyNv5tMWcuB0vljIayWC1qKeA0aLekEQeo4XHsMMuT4WR8YkuctNJZLvlbhcjh+JXgVcdbIeYPjD3ff3D4iB8prHxiRNZlgEnKgvHgdcuJu4Q0Zp11DtXD3snUplz7AWSCM2l5w1lsCXi3wWQxG+cqVLmQZMFRWUkfJyUa6lwuvjP+KFbP2w5YlvOwrFgPSUbJAsQAWvwCna0hNsGaW4tlStZh3gOfWR95XRlkuLhYA3iwVtcRoMwVkyDaCudHQlAuvbFKwyOyPZU6EYMdsLsvlU5/6VKCNZ1Uu4RFHHMGbymjFLMUxqzy8LkB8ySWXgKy949R74zU4/vjjSWt+LFI2lTsezfvIfetzoFx4reIF+EYL7BYvURvEwXz961/faqutGFMlfItWUUcbjonSqP5CMH/mM5/RzuwqLEFWTBau9aHWlqvlXW/VYR//Fr2WF8Bf5+QxH4HiF7wGwCp+4Gtf+xo/1pe+9CVuLZcIaWR1BsyX2sWBcuE1/KuAuCxP9tmjKhiFvAREdTHEr2C0cBYrKtvAErSUAZqryi7E6h133CFcEKbpCeCbrQTtAmWdccqlD1gh2SeDgCz6Y+GsGPyKWQAtG5YoRR8bHHO92hCeEcBHgQQiCsBXvIsVG3CLoxUvK66gDqPzpbZwoHT+2CG5BrJJ+7TesvwiQb/61a9WhRkksjgZ7uOQt8iNbeFAueTrcCwrLpVooiZ6pqva9VNqiZPhPg53l9w+eg5kvFbzkNSUx+KoxWs1af487hwo13oLe9u7KqLISp5hQOBBoO/KsWlL2u24w6Bjblgu+aq4ldW9UGuyU1Qrn1ayDLQgTUHf7p48BdJd+MxsgGhwY+a9jcYO/uXCK2zJMYxdjFmmFMS02MdcmVg20wouA660Ft5XJ3RZJgIWAP5YjcggnimADev3v/893B9wwAHAyp7gKmeYpC5g9RFwiVu+3Jzn3V7slguv4YwNtxZE2qKbjHTIY0mFBMHUFD9//nxuWPUJTfQ8BbK1aLRYT44y4oKmgw9MHqzIASMAMXoEbuH3YARkfh62pbV0a+87K/NopdNf08uGS4ITdqPue9JrtdNKaaJMrWTwS17yEvUMaaVstAQqgHIfOJ87dy7xySvLBEvcognjF8+CWtuATqllshVhU2Z4tf27l0u+Ns4+MlXsFTjqAtZkpJkddukPBK2krnDSQnn4bNPIfgAkK98B6QvlWZdtnOeNUJYLrzRL0YD4UlxdwVyksyZ+uUouqovBy8rRZcanv7pKZ1Uexl4aripNQLuNcfxNJwBKJaBFAC64u2MjryHTNMiBcuFVquq5555LW63yx3IQFPlFQLIekJFErGRal2gIJCsRe9FFF9EKtHPqIrOZPNHr5Ac/+IHBJd8SvZZl9FfrLedCZBp8E5msEQ6UC6+sVwL/iMmifMUmc3qxheAkJsHahO4ScLuqkSQGU/puFBbQyDggasYI1lUaqQqBdcqAXoRrjttqBIWN05QLr/gCVaESDMcjgBPXQkYCYlAWMee8uPN8mu4DtWnkrAYMx95RtpcOr43wCyIdVTK4kY6ZZqw5UF57VhVnCc6iHA3zVjJyBfGQjWP9hvL4RQ50sHw158YsnL4PPEl/FUNNT6V9wl+DMlLHN7/5zTQBxYViNA4q1iuBrfFRkpYlP61UHDe/gNVYhtGEcKCD8WrpXQVHqFKQVSM9krUfsABXxauqfQathCykgoxtFUzh3i5wUOuwrreiYv/nXIVXxFoYthTmdq5RhACbgI5G8JuJLkaISBc/EmQhiZm0fHQJpUYfI1yBMyKWYkE2IS++Q2/akXgNQHjZgdf01uHAa/ARStQQdgAud5R0q/R6uGH33XdfGSzkpRxXwpgx9dhjj5XnjVhEgXMINghpKvGVFVaOIZzxZsUgbmq/WXtxwbFfhYzZj3/84x/96Ef3228/Zi8S2t7eDGTEs7qFiL/3ve9xzMpHsM3s5z//ebm1fA0oTznlFA9Q9ZPrUBiN22N3JF5JuyhgDU84dc899xTX4yymUrGBKaDAaMpHyjgaH/2Fy29961tgyul/8sknK6Ud27+Tf1ypAglc5RQA04gW+NjHPgb6TKrxVkQOSAQ/8cQTSVn4U6uQ/DaCGrFSupF5Njsj8OWqZygRnKgmjCH4zDPP5KFlIDvppJPoFXvttRe8jtubnho36ki8ApyYEoeoKHl/xGG8DELRwaF/0EEHJbllOiZN1b9OL4w3ywjanWgsGl+JPbqpAXkHDAVnRDXhSvdIkYekI0TaZkNLmHIVjJf5zfhKBlMY/DaMs8suu3B0+VX4wRgqCnPAOkCL6jIyYu1Zvjb1Q+pI+wC/0U9/+lMvm1OUrTThFWLYTX0kbqHQAVL+JrMo1sCfj/4ic2IQwI1GvUQPmsdJ1kjU5oyle8iS1QijoYzSE0CNvku7hVdA9AwCuLgMYB1AhSaS6G6tiCxl1/jpXi65hVIGFAmuhwzWpsCKuNdCOKI6mu2Z6E2jXipYFEcghKKcb8vD1u/omXmqABfgEiWhCAQhES2zHIAVBVp4UAMcsdIyWYd8NQKtN/Z7Ma1DHr2WGkAoAhbB6SqRSb7GFA959A3DSkhUPgNekTHWEqh0X5EGQG+dp7tx4F5HNNodnsHtCF19abQsGBF9W/+b5qtFDnRwfizkVab/f6w/XPUxvmqVGBuSpsgUBMUuQT/kIBodVQMG5bJHq57ugzgNWDVmhuaIHOhI/TW+FZFGRlZ5PhtBwIg0VQRD0hcbhyNoqn3EV5UJcKAj9dd4c5YsjAD5LZaKAx2M11K9p/xlgwMZr60gIZxbqWckhLUyUO7TJAcyXptk2DL/GX9BuBh0tt4/9NBDh1RVmx46dxiJA1n/q+Bv9opyDLseeLBiGgvkMT5w1fKgsrYy68qHIVOZYFlkY+M45tVY5rNwRdK29R/jK2L+grg0EvPz9aY5UHa8Ata8XXoP2Ld3hRW6fvXrga+cvPSppyr7x3Kuqp4JmuzKDKVcBlwAjL48atyqfFTOITssVuIEuF6lgIcbgsGVIyNL3KbB2ECHsusDz3tO93v+T9/rt+7Zaove/fbuhV0TPtiJBODp5QgQY+Bg/BelIHmLEBUFRo5GUXkcJon5XLgVQJzQ5WLgWWiA85mkFQ6UHa8veEH3857b1StBq6tr5dndL3+Z/7vEE2666aa2gmcvY9/1l6GXYgDEJC6tIEIHi5M+lUAcFjQLcIkqx628jdxnJA6UHa9/vH1ARSLIcyzpOAWEjAAAIABJREFU77r5NxUQwiuBKvwqKrjgIWnKKyuoRRQsty34auSPFYUYHBbI8rrXvY432FUCuAjlkV5Bvt4EB8qO17893PX+4xZfeXX/b38/8PkTllxwUT+9kxClgOKiUEDRXoINIsSCniq8VQiL0BayNoHSiS42Rdpyyy3FCZx33nlZeW0Cg82QdnD8gPW7yTpiApv5yrW0FbMAsdrT3TXYVdEH4gjMwSLhKgJQKIzs7cCoS3TcIBCmDaYf+MAHrNJSl9p75Ja2cKDs9oFlTKxglAJbtXF3Ep9WXZIIIiI2mO5SgqYwsSRQsxrQFlDWGSTjtQ5zll9iYU3JMFXUUBs5AlkBGJmP7aAou/7aDh7mMcaPAxmv1bwmKSOmu/pC/jwJONDB+gBlsUpftOJhuo8Ubev3qLXW7EzNmMUgJRcg1xmeBPisfoQOxitPacrciq/FYvBP//RPTKFWSNJWJa4g4PFPybHIoJlP1ZKfiYo7ipeVNJUPw9TAR8WApbuEbPlhLACRWiOixVXJXoyy0AzKjBJismJPQ34vZM49T9AjQ+y+KUWxmuv5c6sc6Ei8hsgESt+6KD7h1UHKwqKdMJj3IUZmnz0NE38Q2AGej8r2GMAqjwo9I78cQO3wCuKiW2CUtRUurbQk4sq70mWDDTbg6+JEkKoF04poG5YgZ6y1V7eFl3xD6JecKOrFR6ljrb6X3G9oDnSk/gpnoENGymJV/yJlGQR2iVUyD6qY7kOCcvcnzYEQpTNwAZju582bB15wf9hhh4Gj0hhiBuAMDTEcaCZQpYMLIVCCgNMV+t3OJfWLdCR3BROiF15oTKJXFAGvLKAbYWiW59ZRcKAj5SsM2TJTFiuQcYESfokDcCk9laQEmmgEaOhZsGBBoiEFJbX6SJSaxF2FQmOSqYyp0Encugr9DtIXpl0y10Mk5xbUqtMBqaEkRPVjPwx9UYK7X5GaxmQ8ZBdTyUfxmnLX5RzoSLwqMkB9lPKvaIqM/vDm+0Ig4pJlFvlXFKhRzb3qnUMtERsZi3TNiFu1iwaQmehDGaUSQCp0UnA1+pHQH2gUFADuA33BkUxNoCRTowy8TG5AB+WM1/b+1Dq1/kDUa6c7Ftc0QEbWRrI/3TEOAk+MX6o/QGSSlDoagWQloUlW57QIYhU0DQKdfgbQHDN7iNVQYcHX6k3EILxSSKAT1qkfJCtJ7y9YW8+hcV86SfZ4tRevHRw/UFxpFZmS4v2iMSb9ZEkg9oCMaNRiBBkEQAavQOwj2elSHLqHUkFGOtADIulLivsYxP5GcgEck9C6hP0BgY/GbO/byqN1pD4Qrw1EwKKqroxL9SNgwuQUIxB+RSOrjwG+BIuAYPoYUVqpb5E4UcJ61SAZZG3kQAfjlSTLs20bodARQ3WkPasjOJsfciw4kPE6Kq4S8LUyfsjGUd0md36GAxmvTWMBHCuG2WXJsWzAvFlFyDpnf5Vba+nW9NC5w0gc6GD9daSv1tD1ItRAsNgnVvfRGGSBUX+VxrbA4sJVj5ttgRMhEBx/reH0texLgpZRoqGnyUQjcaDUeIWnDdfvfvuRfWuu2fW9BQMXXdxfSTNYdsgr5Gjl64odCuw+AJRMqu94xzs4C1SLFxbDMQGI/LRqbbMJfOELX2BwBVnuX+5ZbjYxBmIY2Hr/93//lyNjpHeRr4/MgVLjdY3Vu774n9M2Wr+Szb3NVr1vO3rwp1dXrLBQyCx19tlncwpAqkmf5VWQgHauMu4D+8S6JJ2LMsBf8NnPflaClyrE55xzDpaz73IlgCzL7pe//GX+CE6NkM0jv5BMUZcD5cUr4brxxj2rrQqdFZna0z24zTY9P7umksQFl9xUu+66KxOvjwRkTPTanWgJTMd5CE6+MbgMsmA4XzGUH3744S6JXgDrui8iX2yIA6XWq1ST//sjdjSoYPSpp7vuvNNJ5RxM6QOxo4t4wogBENUqKCw8XuQlx5jzpKEGs0lfEjfOwVdKrf1n6LJGy+FaDeFxJKJOjR/wvcCFj9TEPdJ3HPo6WfjQ36z0u1Zbrfvvjwxe9bOBU06t+FlRG9bsby0lbkYQVmxAIGlbsIvbCZylrdIT/IVX4QriDcBXZ67g17zmNVZgwK3RZotUWOC2B1h2eg39Gpps7eD4AQYjYKrvfR2RGwC3ztrds2Z2/eluZbOejf7WHrN/CjyoUkCH00cBfdtttxU3I8kblA1CvhotlIcRnycT1OdAefXX4AsY3f9AOn2WVwHHKpxVYW5ICMKrnxDjALAarmgUq/8m8tVGOFB2vDbCo6ZoGF/ZDXQZEs1NDZWJazmQ8VrLk1G1ZJiOin0jdS61fWAk5rTnOqWiPQPlUTp6P6N2vT54WrYiehZVbE/SBrmmhoOanDAEI4pS3eXWshKwbbXraUs+Ttn1gec/r2vH7Xtnz+6+9rqB6361vOQgnDELOHiqYJebynnEAzCiWVEBK+uErBjtPAssVq6Gv0D8eGwXE4Hk1ltoDKgXs65FWFhzSw67lr9+qfE6e3bXe47um7NNz4wVunbavucTn1rym1uWx17BFiBKaeRl5XqF2oULF4KgwCvgs38Bryxb1f777++vq4IKRMAwvqoXyxMr2IC7wVvhQZD2jZ75FnbB/bTTTmOGa/mFlbxjefVX8/9GG3Zvu1XPOmv1rLpKz2ab9Mx5/XJ3KwhyDQhbYUYFXBAU3aJIkRocIBv+AuDjylJ0Gy75WnfbbTcilgNW6FZkhIe24JzvgDw2Gg/CzTffTNyWHHOj+frlxSvX65LFEY+1XHMFpCqF1cfYtNs8LtMQ5kQLyIPlpAU7NYjEtSilAc2yZ1myRBoIjvFXpldxKKUJJNzSZRVGoBiM5oWVvG958Ur+/eHWgbPP61/0VNdA1+Avbxg458fL9dciJsAuDvSSwkUCcNIqL0AHUHSDA1aRAVgEUFO/q2IOzf4QbHcDJzGUMkdwb3sZEQg5jns0P7nyxg/gmozuG28evPjS/rPPHfjuGf2qBTDza6cPAKKFkYlewIB1lXotAMdrRTcVEkB5JURvvPFGOqtYWGoDncF6i+xUiRuUnWu0UIsEccjefPPNBSTY48DeB1klaBmyZY8fwDghL/5VlQoAtXD9+2t5ZMkfK31AdAmUCV1QpiS45JxeSwC7hDjqeflI4gr6pgz85Cc/caPomBdbLYNVx1LbB4JxFl61Fn0iMKSgv5CXosCqyh0AbtE+FV2iBYhhHVLvvPPO2iIJo3lnZe6b8TpWbx/KLcIcI7oVxuoJpuK4Ga9j+FYzUtvO3PLaB9rOyjQgNYCqOnbjl3nkjNc2vH2LsMj0irE4CJREzsK1DZytGSLrA12zV+zq7et67NGuZXlclQPU2KT4TklKiyd52+FKBUrO1Qgk4MpCwFVrvS+l20dbykeJetZWrgRFNhkK0KDXXnQf1LyF3NAoB8qN18HBl27Uvc3WvSvN7vrlrwd+fu1A5G+ZzRn2bdENjhjJaOpE7WKCU2gLUytzgfwtcATl2MsALqV5CRtAD53hPlDfWBACLwPDbQzV6GvJdMNwoNR4lWn4/veJd+nt6+26/8HBd71v8fU3VOJd4FW0gGCXH/3oRyIEYJFBiv1f3WObcDNagakkrQsvvFAIAXq+A7iUUeicHCVflSSCZg5Y/lsuA96HjNdhENhcc3n1V8DaYIPujV/WM60PzLrXXL17uzm9SemkBnBKyWsVzsIjAJeiVbheQZY/lq+LD5Y7QMwAcDNayYl1hOc23gB6I0BtOBqaey2ZehgOlBevoPnII4OLFi2PceHfuu++Z0O2oZBAJWIJS7M/CSpiS0gAwQmjRCwvAGesLWVIVh85bBGQyhSJYDWYKk+EZvvttxcoMwz/c3NzHCi1PnDHnYOnf3/p3J17Z83quvGmwYVXPlu+Hdqs+kUL0AQEAYrPEgAg9spHYQPQDKCm+EsvvZSsJVYhFb5J02QoIJUJYCs2eyRRYZt7LZl6GA6UGq9LlnR/f0H/TTcPzpjZ9YdbBx9YnthdYRV9wIQuNoVwpZiGzkqUAm6UHyQ4BWHZBlGLc1vSMRRAMxxbijm39iJf2Q3oCcVC8sO8iNzcEAdKjVccWvRk9y9/XZ0PCKy2iwFTkE0aLVw6ElPtAOOIj9BMhY1zoleALEwDuvCuXDarIRg2TFR2vA7JKPhjPY0yb0MS1Gkka63JikEwdYjzpWY5kPE6NMdA1jH0tbqtFF9HXZJ8sXUOlNc+0DrPmu+ZnVvN82zoHhmvQ/MFwtoiJqmzXAyyDoe+TW5tkgNlx2tY+It2fgyEVJasQw45JHIHijRxjiCJzEB2GiERx4vwseKNWOb3ClUhdWzyTWXyCgdKrb+Czkte3P3WQ3vXWKP7zB8NXHZ5JZUAU1j+ZWWx85OOUrUiSEDGdpR0tZbiR2CuOv3000HwLW95izgBRllFtJlg99lnHzYsaQVMXYFdpln2Vz8Aqd4uff/732fQzehrjQOlzjdcdZWuU74yffvX9264fs+uu/QKebnn3oo4FLBisSV50D4ZclwFW7FkmdYFA/jrqnbwZbFSa4gD7Etf+hJXAu8X4ysE//CHP+RrYHNlhTUaSvnf++67r/1kxHDJoWUsa+1t5V7l1QcIv00361ljNdEtlfm6t6dr++2W18sAixCNwCd+wF/ilvE/jKyiCJhm7RsjqICghdQPfvCDgrnUImAFU+LlrW99K0WiuHE4L9eVV14p9/CII45gkc0qQcs/vFLrA/f/dfCJRZX9C+yjsWRpF+G6bP+CikoAo0BMxIpZEaJFrJrHY7uiiG1VJoO4JYaFEV522WV8XZGTeMIJJ0TdFyIZfFM2rPNPfepTCr0cffTRb3/720PxaPm1lbZjefEKMb/7/eB3zujfb+/eGTMGb7p54KwfMrgu3/4lnK6qZdnVyDkFVJwAzRWOVcKiBpj66a8E5wc+8AHZBMIGUAoYIInpu9AJ6/Pnzxf5GtJa+IGqhhrV4dKrtIAb5RcvL14xDmS//o2l553fP2tW9x13krNRnqjCUmKVVip+hSbqsJyy2NIOr+eeey7XF/EZAvVf/uVfIq6AKAVE2oJeEe2qV0RvoSSe7cnhjtCfhWvLqC01XgOyf6nETlXUgGW2geWHD0AGgjRU5gLaKvnqmtkf4GJnmOgAwREk4CPFtLj/hxHEH6qXwcjgakS9ZLC2DNbK+9phhx1GuVWkqZBEKcaCGJdlx1tszaXZyPeBjLbsDzPivdLaKKHTSeOYCz24cfoRn6fkBGWXryO+/iqoNat6Nks/4vOUnCAr/iUHQId9/akmX+khlkf0EEuiRsyc5J81e9Wmc9xa1kmUnNZCCjsMAh31uB2MV6CkHRa5bQGuQLt0VuskWSjQxgJlnRRlARIlHCsvoK+DWUp9TEv++Bg0EMx9yv4f6ySYdjU8CECMZuz08o4CzwQ8bAfjFQoDRknFtJC3qUvAix/Vgg9wWUAVCk40kIqGGHbCy6/g9dy5c633WaAIZgkwkMpQip4LQCrsq1/9apgGfWXg9eLNsr605FeUIAdljz9gO1J/hUulKwg54SMgFTIP78zj/oKpPGwue3Z7CVWEJYmbOKsvf1WQEZmIKQMyW1DuvvvuIKtYS2zwAtDQyY9lKH4plimJWTwCDLFVcn38X1tp79iR8lX5CZgz0RN4il9L6EvvDwRZ7AVMJYFKOpKy8gGjhRyVis0jJU7FCb8Ae6pBYB1AtYtHEZgiHgDKgZWchnuaBhD/4Q9/IH1VwVD0PZuoJuQ305F45R3l8FReHdocSZs0QYMRkSmELy22XGVgTvACO2EAetmoSESVUCky1VWYBnQhf4JawrCvhcrhXvYqCh8B4eqcniDUkAgP/9aEvLbS3rQj8WruJuFA1lQe1dfi/Zmpv/KVr5C+4JjeKOlIfIIvUPoLhapXEJOk6VVXXQXK0HnAAQd8+9vfVglL7J8aRCAubRA9gUo877fffu4VzlURBdZhAliNU1rQTOAX72D/Fq7VTsp0WQfIJp7SNYX2peg+XSyYKLWwyydHJPOToQFrQViiVMWvwGsSuoidQyeCGNl6zrkBkwifwPdXtlt3pHyNl0S/hLaqRXq0FGNPq94okJGdjtQe6q91m9XVl7/8ZbM8TKcRiqUuDF5n5LJBZ0K+bwfjlYwk9qrw2jIT6anf+MY3jFYrs1seM3dsOwc60p7Vdi7EgO2C/hg9Xh4WBzJeMww6iQMZr0O/LdYDi7a8ohqaOxPXmvHa1d03o3vais+mFizzk3HDStSupBYss856QRDMVuBvvCzas48RLojA4s9R1H2d6wv04XXzN0wN0d0lH+PSxL39zrtzB6+3Rs9s2xr2rbzuCs9/Xc8KKz1933WLH/hN92ClZhaowaWiLFK1nMspYMBismVD4B4TOQBttjPwl/n2lltuEW/AYcuwwPuQgt95jHWBV+5cjZIQo/QxjwOU+z2wjomnEYqQpXjjr7LU9Qd6Vlh51e0+vtIrD5+x7hz/nr73mv5FDwAoPHHDgpQwF65dIQewKDEGQMUYyPAWMcMryyHsL9/Be9/7Xr2QSeYWFmPdBqbCaHh3mXK5J1jBSGtGNI43/jNDvfGNbwRiFjRuiIzXxvFaXvkKJdPX2Gj6Wpt091am+N5Za8980U5LH7oleOeq6AIpr1yvQGbi9tGMD3+wKD6GVxYuodO0To4K9dKilxAcXlzYJaHtJMPHy4sLzUQv0HOYkdCAzmFmKKLabyP5kxt/baWlLK/+CkODi58YXPKMm2pwoP/JSkZhOiBPvIvAbSiUjU03gNqIYCQj1SMC0JCsBKfJ3V/yGIECBaHmQq0RHIIWiGFBCPPmzSOD4ZUaIIZGBQ2DlBZ8LXzxUusDA08/2jN9VnffrIHFjz7952ue+M13BpdU/F6gzElLKwU7eBV+AGoQaVoXPABqggocAEpkqpPlEkpoJilh0ZYb6KGcJgC7cOkjGQzKHByATk6LAtMo+IE+kEMRGgduB8cPtCc/dtqKK6y9Wfe0mYsf+O3AE/cF4+CVcI39M0z6sYSijBKTQm1E1Wi0wGIiAGUApSEI9QJHSysEFABeXNilSMC3RvHgFlvgC+JUAuNTi2nDLuWtOBoHa0WU5HzupviViSeWA+XVXyeW7/nurXEg47U1vuVeE8OBjNeJ4Xu+a2scyHgdgm/WQ5bw1vVDXGusiXEgjsbIM1WjHCg7XpehqlLtrXgwTsk3fMMb3lC5VnNEYxGO6TydsHbJVmAfSL3TUKl7XKr6WHO33PAPHCi1/RVWemauvuLG+8184Q79Tz3cv+hBkhV72FO5+yP5Vg434LJkaWRDFUiglzQvKWIvf/nLpXbx3PLQ8nJJ7WJbhVGhBcyuUhcZsxi/IsOMgWyPPfbgLWPqYgLTV+4NGxljWThv58yZwyKWzVv1f6Cllq/d02atvtPnVtnifbM3PXLNN31t2hovTVIQ15yHAdV+hdLHncMuICpWzGUFaspkq8TBTeAEHJXeAHcEggrk6DLN8sGmdJq3ve1t4Cir9phjjgF9JeS5cKHTyGQ59wHPLd8Eo3L9F1byq+XFKziu8JzNp62+Uc/0FXv6ZvTOXGPWBruFfE2YiB1ilcyGUT6CqHhAEHJKaRFpRaCef/75vLUg6NDRCBBMpkoLk8/IfaAx6noIJ1Bs5n3vex+vGLFqLwOeBX5axNwN8sslmnN6lRyR9b9+efGKLwNLnuwaTBW4BgeXPFFkFvfVtttuyy912mmnQRUgim6hJwiqIjth0XQvWoUmwKHKm4VAF16rFNUa6EcDoBqpxVrEDzixzYHUcyrH4YcfLurlk5/8pDEpHvxe9V9Yya+WNz4LdBb/9fon/3TZrJfs2tUzrf/Ru564ZQGhGyAjTYVZkXzCWHfddVezP7CKHDjwwAOFw2oXNvCmN70J2iD4zDPPRAzBxx13HE2XaisIi4VBRCIEk74XXngh+oMPPli7IFpTP4BG6Badwcpsl112EUMjPoHntuSIrP/1S+2PrWir3T3T19m0Z/rKT//52sGlTwZY/YU2UhAKRW0jC+ySke9617suvfRS0zqRCZpkLVXVoioELbMA1OpOGaADEL1RtcBfioEAGo233nqrvnAsLAYxxYAiAcSktfAulPVfWMmvlhqvTb17YFWsE+BIU4psU30zcbs4UF59oFkO0lC/+93vWuOHDG62e6ZvCwdKvd5qloNJu222Y6ZvFwcyXtvFyTzOeHAg47UNXLbY4iYI+2saLnITipXn2nCn0g+R8VpxZFX+/eNh6o8jmtN5aneSLlnsM0hFfY1EYL3PngXHyIYbLd2zatgR6UuL27Kvt3pXXnfG87fu7ltx8YM3Lb7vusABUwCPKxc/kcnUyh3AU6rirBRZ9nyOWUsuOx5yR/nIpMU+5S9nlV4MqIxfIW75GiIThjOMbUulAk4BQQiRy2WvhPCfuR1TlyRvRl/GXcYHw7L78tZyJeioMrOfBF8av1rJV3ullq/d01da6VVHrbzFe1fe4j2rbPm+vtVfFngFU8ZRCbFQwr8PfA5RLBBsdwPwktTKicC2dcghh0QhWC2AJXJAkhZwI2a4NRobragDoYlAzL9ABvM4hMRlrA0hLY2WM1Z3V0XPGAS+4dIPICoeENV+NmiS5yzL1zJyYNpq689YdzuRA7z+09fZfMZ6cx7/2+8SIwg/QhRk+as4n+APjJj9eaqA6ROf+ISrIGVnBMgTnKURnuiyTiA+BKH4FbEBogJcEtQClIaCfihPlWDQkMQKfBscZPkO4NjteCLcnaz94he/yCXh7kkJKePbWvadyytfKzpi/5KKqEsvf2BpAgQ7q1k+MrBZXh0uma8jBoD3y1V6QtTMglGCEIETgAMyEjFG1QUlxPPlKj9PysqPtTcYzxaIAzHh6i4OklhHchpqhSuY+olzvwQ0sZIjuY1fWqTGFy+v/kr+Lfn7HxfdevaKGx8sROupP1+z6PYLk3YIZ+AYqA28gh0F1OR+2GGHgSmxyn0KWCIDZWkLDHAQyQoNUUC5VfXShf4qHJF2S8FQLcuYYEdkEsxGo++++c1vFk9DMxaKQOgiRkaUIvCGhCNecskltlfwJHy8xiw5Xsvuj+2Zsboll3jCpY//eekjtpGp4AFqTdwEHriQlECmhWSFSzCKukOmdcKS/DObk4jwbflFQJrNwRTyXI0IBAKSRuscoE3xuhiTMHaOEr3aRFpCnYVvo6E3lEGMqWPsMUYk+5jxmveT764U03w2sLDkkJjUX7+8+kDhtQxhf53UL63ED1d2/b3Er74jv3rGa0e+ttI+dMZrO1+9ZVmyMLRz3DzWMxzIeGUO6OnqqdbjwY6xM4z//lrjJyAmg2jw0EeHc0YurgF+1CJkq/qypCYbqpPkVsiAbJADpa4/gEfdK6wybc1XTFttw8GlTw8seWKZOasLkliUbCDPqgWLLE1iBpi3mKiAUsIWGyoDFh8pMoU1/WXzkjw4f/585ie+qCjpqjv/KiMrBOvLLMUKi5hhyy24u4QNOImaBg2+sJKTVcuVcrGjd8YqW/7fWS/dp7tv+pIHbnnwomMGHr8XB2BO8IDyFsoLMNSTmkyhYgDOOecclnwgY5d1smDBAsnZfAToAZSflnAFSi4uUAZ0ieDQDKnsrOeee65i3LILObT4GsD93e9+tx2WBSHYVxF9uTjf6rctrz7AYq9AxowX7tTdO50B1vmsDd6U4gohTFLheeedB3ywePXVV8No1G7n1uKF4lMFTeJTCQyps875n8Rw8XiFVR++wRci5W1LUYRaBPo65yCAZsWKhWtdfvnl7tXq6ytdv/Li1auuzP6D/aEDVN78oNys5QggVonA0ETBVDwKtHE+gaYwPzUEeGWJVQqoS6ApPICzFH2EAWjhoIqoABJUu/OFCxea/ffZZx8VN+gMYgX5aQ866CCKRA5kafCXV159AIaW/O3Wp+66wk5GXfyxf7/9qbsWwo12f4lDApVkJQLh0nwtooWiSanF2d/97nfgCHMELVVBC7Dy1orDAj4KK5UXrElT5xFypfoQYcyLC9l+CbQCPwNhAwStO8YPo8F3Vmaycq+3BpYsfvCW/kV/XfzAjYtuWbDkod8FbuAVUoWtEKgO8zV4Cf8TZqURFmH3sssuI3EFW1Fn0St+AayxkAJ0MQD+qgNHoFqiuUoH0ChK0IBXXHGFvmQwKIvD8pMoMwSb+u5lj3fBrDQX1xdyIXqr6IfsG40J+vE+0kcnxaHq37Spd1kG4vLqA+ntNoiYRFakH7JvHYK4NORQZUDb6L9jqddbo2dfHmGcOZDxOs4Mz7cbFQcyXuuxj6Jp/V5VWKBeh3xtjDmQ8bp8vZVWTsFwpn4uLkhVQ0ARd9ar9CKCMv11ko4RX1axb9WAI/bNBDhQ6vUW9HT3zZj5gm3U03zynqsGFj0U/gIWKHnbUrUY+WPPYpQsstxXklLUgpWAxZLKAeYqe5aQAAZa5lj2f1UCOF21RE42dxfTFUYbgaj2G+AJU5ibaZZdzEdWW4UIEPD6snapP8AoG7DOAK3lQKntr90901ad8/HZmxw2Y73tZ7xop6fuvmLg6ccs3hlN2fbFo0ASqz50MqYqWgFGBO3uu+8uJXCbbbYJ2+qRRx7Jzqo0NkeXvlxfErNcjdQukTECDGAd622wIVYG0N/5zncKNjj66KNd8tuQ3i0tzMaoOnI3+EnkKrC1SI2W8uoDwKdSseIufbPX6Z25+vTVN5q14Z5haeIs4J0SBsBBQMSSl1ypXAPirQBRbiCZSlgSwBQG2BVd4Cq5GO4uedjisEDQId6FaoHXRkYv0uXKK69UXJvvQF81XXgZhCIYDbKNz/uVkwqHA6v2UusDysAvi3yNoAFVLlYIToEymPobIQHcp+AVIYKAxdEVm8DzZhGHvF8u+RuHjuQuGRnII1kJVI3wqm8Qu4uW//zP/6QzbLXVVgrGi4kC6pi0AAAgAElEQVShTvgxSO+++OKLhRbUeWdlvlRevALQ4r/8csmDt/TMWFW2dv/Tjyz6/VkVjXbZAYIStWmxzmELRFxykIUCVszXRKP9Xkzo6WqiAWiSVSEj6KSeUnOt2H70ox+RrJQHOKYYUAZUiFFBw42oBCJg0BDkuuQiA3V+kKX2x1bQab314l1A9snbL+5/4q8pPstkbdLn3+fuJy/JSPooPoofsMYiF62iAJF2a7qHM8or5MFx1GnT3fpJrJaiGMSwKBnxA66qjWVRBfS6+z1Qdkli4xC9VAi3sLsBQVvnhZX8UqnxGu8+ZGr8rUJDncYhLw0JJpTayWl/q+5Ve2nIEXJj4kB59YHEgkBS/K1CRp3GIS8NCawiZdW9ai8NOUJuTBwor30gg6ATOZDx2olvrbzPnPHa+runfVpIWSoVh7DSYkZNIQdmfGsyGQqt3yb3LHAg4zWYMcT+BcsvQOWyBdOy/5/dsyDO1bxOWIwWnlj7bbMhxEcmAtttMhpE9zRC1YDpjQTZkB+rLpUTxmVfb3WvsBovF6vWkof+0P/IHQECEGR1YgrlIOUsjcRDHlpXZW6xj8rKgku+/kgqhE4+LYZYjlneL6ZZLQxVPF6R+c1ExaoluoCBTICBj6IIfGQCM0gEGJDEYB35YWh0t82BcTwD55nkGW5hD8B8W+bdFcuN194Zszc5dOZL5nZPm7Xk/hsf+fnn+x+7BybM5nADkez54rMgBha5suCJvGSRVZoApORdCSo4/fTTRRqwvzLT6sWJALKImVeBnofWgLAoPAC4+cn22muvr371q0YQIsMiq8WACNALfwFQ9/IArtoEAcrdVOb3brvt5vfDW8ZM63kat05MMTFcan1g2qovWXGj+dNW22DaSs+f+eK5K6y3fbxdGCLeoI0IBD7OgtBHZWZDpL8EsHxDLgDwAlPphzpSW9FHGRgwRcDLRRK7xIMleMBHxCCuF0FLZIJmuMfQEORQrpoBf6yRIdKNjEac0wSMoHuRfooBscGvU168AgE1oBJC8MzRs8JKoV+ChXgXrlTYgl2Npm+yTWxKpVd3NzTHtjC6Wm+JAUBPTPoIkVFLnjhE7GMMr5cYQprA+eefry8xbJYncbm4XPIDQOm+budGCAyo1oHYF78BItY5VQTltttuGw/Z4AueYmTl1Qe8+yUP3/b0n6+Zuf4bu3qnLX3kzqfuvDzNs3RE0y5NlEpAwpF81AMCjz5ahQBdXKISkLLh+icIt9tuO+2QB6CmdSdSuslatgKHQQQWwihKKqyAWpEuKsGA6Z577gnulFp31w7ExLw7Gp+sRe9vesgphsVGvk7Z/bG9K79w+tqv7Jm24uKHfrf4/pu6uyqhLXGQasQq3ZGkVO+NYgCOFErCFUAtrbRb+wMiYEEStCEgRPUiOAGLdCQmBQr6C50CEvwltklKXUQLgGbsg4CGNkyFpRW4O5SDOHxTA0hckhhqDUuyoi9zgEHZ8VqBZu80sX6DSytlWqoOkiwmXydEnfM4UntM4npRcEO4InA1jmgpEoe2EHfRBXEVTVhzU6OPzuMZivTVD1qaz+XVB559xf1LBruGrrgWQEGZgBW9UntaLZGUacDAdPFjnFetlqq6BE0gNd2lSFM8f/bhS3ZW3vVWyV70FPm6Ga9T5EWW5GtMNbwWZ/AGX2FM3/6GhmrWrprQGxwnk40DB6ZUfqyVDXuQJBax/ZJS6IJprVNkpcb4GCfsTSgtw48//ng2VMZUxnyJLrFmGod3kG/ROAc6GK++pCVIWvH4yKipyLqUVHiFQkYiLnhYLDowWUkZqjSSpggswN/xjndYeke1azCVssLkxBTFhoUyZQg2ztNMOXYc6Ei8smJCGEs7zDlJkGXR5KYPPzvvKMAxc7KD8o4mPQFGbUnMhqr90EMPJVDFWBlEohWss6qygLJ98rty9EfMAMtocdk+di8jjzwiBzrPngV5QqVIPtFPLOphTo8i176tq9L3CNTw6WsRU0LiCmtKakBRxzUIzcG+Grqk9lBkXfr5z3/OPu8HMCIfM8H4cKDz8Ap23EW86kL4IEmt6gTWkILE4cEHH5zAp5EfFV6DoT4SzzRU8jWM8yi5oxKakZGv1AOI33XXXTlmzzjjDJED4/M+8l3qc6Dz8Or78L/L5ZdULY5JCZb0DQWSmvoJVCBLeIXpiEQJMn21gLuPTugS5KsgPbWxgFJL1AKK+Fcoh9oIzqrPx3x1fDjQwf7YYFBRLsIo2Uln5alP7KMwmNm59aMFDd3UgszSinxVqYX0FewnrsVyTfo/TSOCWqJgloJtZO34vIx8lxE50MF4Bc0qD6dvC45FBI/4/UMM6xIdq7o3O9qIt8sEo+RAB/sL6KBpUZW40BRY9UpG1uhY1b3Z0Ub5MnL3ETnQwXi1is94GvEFTzGCDsbrJHkTaWE3SZ5naj9Gxmsr75cpTfR0SHc6iajtLOlb4WPzfTrSntX81xy2R1pR1S6t6ghO2QR8tjEotSQi/xN9xu6w7B71hVLjFcJWXbV7x+17Vlqp66c/G/jj7c/aFmS8MHLxx7LLqh7M/sWpBqYyq+w+4Cp/WGI+Hy9jhYgFJjD+MLXey1wiYNSYrDdAqfFq05fjPtS3zZY906Z37b1n17EfXnz7HRXIEpmSrRluGV8l+nGJASKBKlVL7AGkwm4EcEE8Iy7PBSjvvPPONjXWnQW3zCUC6sFt1NfKq7+C2is36dl6i57nPqdnrTV6Xr5R97xdlhscXHIIl7GLBk8YhwK/F6cD5wJXmdlfME0qmwWgsgIF3wD0/Pnz4TupCqN+O3mAag6UF684oRxWbx8TbIUp/trZPdgj5VoNLNA888wz1c7WKMAgMgphVxAjNC/r0i0IIbqIYVAg46STToLjnXbaKQiqmZ0/j5oD5dUHoO2GGweu+UX/G5UjmtZ1732DZ55VyUTVThNwgB211fJf/jSVwDZGxK127lkh4TgvGsZWGV/84hedy/a2rwFiLjeu3bzkGjUyhx6gg/2xsvXNwupMDf3NGmiFTuVXXrtFzyqrdl111cATi5ZXbdeVCguCYCf8xewPi8K+IpjGTeESgkGTfHX1c5/7nI00op6F2K6ImGng/pmkaQ6UV75iFTia2H9+bVTJ/AeZCIuplAvlVXy3j+K/EDlANjhNDXjPe97zgx/8QCM9oWg0aPpV5A4NcKDU8rUB/iwniRQGQreqCwntUvYMN87JUVKWWr42zrtapEZfYjUZChofLVO2zIFqgdHyQLlj4gAQD4fvzKVRciDjtWLVavYQyhg7zHMNWPZVWa/4DgSM18Y6NnuXTF/LgbLrA/Yi3nD9bvWG77l38NbbnuUPGckLAHPsD1ZX0Gk55WAN8JG7y7marHxa1mH2O7YmS24CDgUpDPERspnAGA2yRbYWfC20lBqvs2YNvuXgvv326p09u+uaXwz822eW3nV3hYfAKnKAy0BUgEgApd/hjwNWuphCrXJm1NSAP4lfCDi0LLmcCBuIRDH2LBmRsC4tTCltUObIzREFLaCztkup8friF/XM3613zdUrbq052/TutOPgqd9cCqw+kouqGfBpyQXXYq8L6yqQhVTuA2Ys8jXycjnDiFIhhUrDih/QF9YFHBqBN0EOI/iG8lDL/dzSLAdKjdc+28kvd8b6b3D6tOX+AtB0wBm8Uk/pAEW20hBUf4HRkKaKD1933XUithyJDMQZa0li/lvS10dHVgmaRWctfanXW7ffPnDZwoFHHhuU1/3r6wcWXtEfDCIOCVTpslRVwCVK/VWbg4YAf2g4t0z0FFznYZoNK6zlF8kaEtpfEhdqKbtSdrPZqxZ8LbSUWr4+9lj317+59FfX98yc0XXrHwd/f+tyBoIp3ZRkJV/VN6AG0EGpsOAo/IV8FRFr3wvrKrqBj+AbCivdQCxsFNeAYIAWl6jSkWzygHULbyh3KXKg1HjFCAusu+5+ds+CYA28AlnsBkNGQmSULaKwWjlRA/hdnZOdzgGRAEbP5uoEdonhiJIRu01JMAL6jNe2/PDKjtfhmMgCFZGEiaBYSEYjBBf7AmV8pKQK4GJSYOeC3RxRMByHW2vPeG2Nb8P2Indjz05gHZYoX2iVAxmvrXJumH7mfQ6CYS7m5tFyoNT2gTrMC9vTcBYo7cNdqjNm8VL98RscpIRkGa9DvHS2J8t8yQVDXFtWoksqrA2Ow241JM2IjbxiYsBHCfoR7zL1CMqO15CUVfKSGUshebtlm9xjXY/ACZXUCZhK9QY4aIhGfwN5xY/RNy6l9gQghgW7FoYTIVIVMnYb+XWVWn8FkQ036D7qiL611uj63pn9F13CsLU85RBkuV5Blk3qu9/9LpPWfvvtJ29bjIvyxUxXZLCMLrDmVmBM+O///m85CHZ933777bm1JCq6JNiALrtw4UKbGvso/ODEE0+MOBg+2x133JHN4a1vfatLlmj2pRdjMBqZ3cj77nSajty/IJjOGk8yseS3/A7WWL3rpC9Nf/3rel+0Xs+8N/T++oaBu+6uiE9g5R2Qj/X5z39e4WI2VFndLFOnnHIKEAOc+gP33XefAAM53x/60IeAUiZ3RBd8+tOfFjmA3jjE6mmnnYaMH+Hb3/42CxeayKWhTgAxs5esxk996lNGiwivjNf6b7O8+gDhuvHGPautKrYaSLoFEmyz9bMFD0HQlM2qSnYy/nNTCR2UqsWn5XeSwrGVezEOS61dOni/BMegsYGH7uAO4jDKlUAYa5dVqzElz+goDgFkP/zhD9vP248kg7U+WF0ttT7wl78M/v2RrjXXGOzt6X7qaS4Akdv+VVQCYEoKJa8Vucj1eu2111qHQad95uMqZQBS6Qlgh0ZBje985zvATVhakwX+iFv7dlxyySVHHXUUwczNG86FEORKyFAYQNwgZd54e0SkBkF58Qout942eNr3lr55994ZM7tuvnnw3PNZ+CtgNY9zxpqjgVJggL+SuXfZZZdDDjkE1CidNFEEkggMcuCBBxKNdFwttkM6/PDDndhegex0NVZa9GAgpgojmDt3rkvhyEXwqle9itD1EdYbfGdlJit7fiwsPmed7lmzuu78EwvAs/UHknBN4IAt03qYCKLRBl0m9x/+8IeI4TKkqZb4GDTR6Dz1jZa9996bUnvqqaemYcuMwsa/e3nla8LTX++vglblY8JZkZXhYk2X2AGcQ2qRvupj6l7Vl0y94IIL4mr23BaZXP+87Hitz506VwlRqmcQDAnu+n2puQia7VhnzJJcynht8UWPBmqj6dvi406VbuW1Z02VN1iu7zGl8GqOtlSPPOwGX6NFT8pgabBLJptADkwpfUBFwYMOOkj2FXO9fWWFVENwqs0WXI6Ff8zIzhHzYHGH1hoE6ryVPKHXYc6YXupgvEbiVJE7PJ/c90SsFTfLPKMm4CqCyRqaEMZoyr/KDmqFTrIyr7KMuqpWAHe/nFhlBFziLwViIVqSXtxIF6PxsvIXiFMRRVD1MxjTl5QHTxzoSLwSisShSH7AUqgCKEM6+gh5PKjwFEYif8G3+L5RctzrC3lyXJ2ItJKxfdhhh51zzjnUA1bVcDiJE7BbAbg7oWOgh1p+LL3cKON1Qn5FHYlXspM4DPnHVwRSCT3gSECSi6lEhTxsNlEQDBHLawriJLE0axXcOU5RGpDsNBRckqx8p3BsEDgGTU5XPi05rptttpmrYgbCyDohL6zkN+1IvEroo3RyEZnWnacQrZCyovLIwhSSwl8vDIU6G28asQmdcx8WYZcyoB3cTfcCBUFZpJ8RBAdKc7WZkYID7qUiBs1BXWKxL7yy2t23KZW35Dhr19fvSLwSftdcc424EzN1ZF0HO8SLnHfeeRAZTtFohEVBUrAV8tVfnvp58+ZBLVAGXoHP4uztb387/cEJdULwALVBnArXP32DcCWnd9hhB4DmWfUAGaztgmBT43Rq/IAvGfgr4sa56ZsIdCQugKAFE8ylJZdLSl5qATvarfgpwNWFYmqiJ2hB3DjaAZ22AKDWYboDdzSKesl4bQpn7SLuSPnqy4NLIKaIQueEqyNi+Is8KpJpjxIsThADq5MQoqkLyIZODOupEZQd7WJ9HqcFDnSwv4CMJO1a+M65S+dyoIPxSmRWSc3OfQ35yRvkQAfjtcFvmMmmEgfKjlcahWUWcyyzV2vvlYxn84qlnnHyOqw1NjbYq1PXWw1+vRHJbLHJOsv+ZYnGFsZioIu/aUEWIzAXMBRYgUUiITOChZoWxgdqtI05FyxYwNPLN3bCCSewOVilZZ/CiMxvgaDUeCUa58yZw7kQjOPl4imAMyZYvlnQjHZOWpgO5y1fmuLDTApMtrIORReAqZQs7RAse5bVVtgNHxhfRlavW0Bk/S5lx2tx0QZ5kUIImkJkeL+CdyQoZwFPAVwSnEpvq2bMNwGa8hAJZjqAoAUE3LncZmoXcJJx4WYRWx98LVwtu/5aZFnCbhHEsGjSJ0dD9EJkquweZLK4eBMEMxhKBMKFF16o4AD9oSrOpoV3k7vUcqDUeA2nQ+0KKdoTswQSiHSBzpCXtFtiWGWXUCRipSV0ywmC4casZX1uaYEDpdYHYOv666/ndE3BMTgIc3TToodMLAFPLJFJB7AOI2htXqC8hXoC3F00AdsZ+KgoAZ3VCGjyhgUtYLGRLp0aPwBqLFAW7EV/aSNfuIomLFlVeBUeAIuJUmiBIi7+up0oLQC1MqMVxNYG/goyZCuAUYov1Fqf+agYUa3kbuEJc5ciB0otXzECqkbcYoChIARnYlzV1gaQGpcIYGoDBDsyzsaCA6XWX8eCoXnMMeVA2fGapuz6czeFofH6gbHkGtPXVtrBS60PAJaUQ+kDJnFagTjusPBrj5OAhbW/RC54VUEoGWWHQwy91tqL2UtEeXGQ4ehze1McKDVe2fYPPvhgTinA4p2SzmVp78SaiYYaaCNZ5W9Z2/FgcWvpYlEFteG5FX4A7tRWSzH0VlosCZwLIgpsMp/x2hQWGyEuNV55pPiuIiWGTFXfPSysXABf+MIXABcHmQVYA0CWxYAVlv/W8ov76r/+67+A8r3vfS/vAID+//buB8ayqr4D+PxbdvmjCIKKJlZjaBO0jRDABSm7FBa2C1JAdNVGlz8LygZBYowlNuCGpGKx2JAoigVXQhZEUGAXVxEKLP8qBUrbdIsaGwhUS1oIWMEoOzP9zP6mx+ub997c2Zm5896952Uyue/c3zn33t/9vu/5nd/vd8750pe+xIcA/UJf/LLAXUb7WWamGmg0XovKwoU68SiRAKBbD7zyXgm6OmVSl7wWjgK5AdbaPuigg2wXf//995sHZpF4BoNljTH0ww8/bHLYTF9Dli+pgYzX6RWFeoVkfRgD9sbQ6TMM0C3DQCF6ZhtwaVnHQNhWoEEAgsz07WaJmWug0f4BvT9SjE2KA5H+R0nRXeA4Aq0WyxD6uvvuu1mrcGl5eEi9/fbb/YdgoQREa7Blsrh2svE6czROX6PR/MqrD20yAYrYglddPAimQlksEc3avHmzVeFtbMRCQKiwaw2EM888kwnLt2CIxpCQtMVygN3pdZ8lZq6BpsdjZ6Sx8HMVvV1BwwnZiZUzuc5IseWFG82v5dUUkoHCIhZbcJlhOlOVzlS+0fbrTJWV5RdcA03nVz7UWAxGzjXX1dT3oYuPdV9aZnRNlexUgnQjtytPN+ikovLljcar6JTxEziClJAV12l4CYz90+QtqrSSISibISPWZeBlQAbEjgN/6UDAVrmzSjTobJgHcgstwrVt27ZpE8HKv7bGSjYar5Jfbd8qPcDrhzNxLI4qYQIRgeISxwANwbbb5HwFcUxsZxgp25bdVEukQJjA4puCXrwKfF5Arwp3gRIgFsu1uyyP7A9+8IPiz6CxmJvNgzcar5FyFSzoeOnSpVSJFyEYXlvUynKAPD27WYdmHJgIjjLh1VfOLDtzm2UAoIKx/FyWp0XYZtXG+nBBzHk0NhukRt1G47WovgSmSB2cqlkhWTLIFXeSiaU2lchrgW8Ht956q2ABA0OUq+jYEsIVDINmRkWG7FTFzqik6f6BBKykNSVtC230qk9PS8nKHGCVomQrd+vlGamitdgUlOHSV8YGHEO51pB3cPmM3k0WnqqBRvMrIpROxWAt0h4TtmW6i1irWWLKZWmZGSvc5RhlKoROtgHSFfGy7jZbQnBLehergMGgWU2JogmGCdWSzPNkpkJwRiWNxisg2hcTFxbxarTEdVUs0fUDovKYxWVKrXCrrFnR19tuu426jcaEapUYbwElur3rrrsYuw405SpbtmwhHCmzM3o9WbhFA43GKxRahYVGigZAi4npqwncoTXIi7MqSoSV7/Loo4865SvSBeJUF/sWZ9gWjzMEZ6OBRuM1Ka4Fo50UmsQcACvGLYYYSjbSqfFcXkYDGa9ltNQqA5q4trU0f59/DTQar8wAAyOWJT2bg8UMnSVHqh5+AJbrLJua/1ffl1doLl6B1eTYdevWGRg5htevf/3runjuAmOmmD8Yr3SHg2siAJvMXAdwKViQQOmsuqDPruXVuvnmmzNe5+MH0Vy8whN/alpIUDB2/fr1VGwUL7567bXXhrrNSXzve9976KGHAqhB1YYNG9isH//4x7lXubFU4Xb9zGc+E7NqTT2QzU2AA4tXYT5eWMPbbC5eW158okMZLWEhJAGRWKMrlGkqgW07sbKYluSB97///dDJycWJe/XVV0sw4NAlhl/z4gPz9LtqenyrjFpjelYs9oaPLTjAP8WHZRluPldTt1mrF154oUmzzpZpMMvstAYajdfIxoocwvRfz96SRSWgIKwVwS1uAdktElmUWA/ezC1BVzEtti+wxt7KEZhNxu5Ov5tccaoGmmsPwJNEqsceeyyyVZJqWJ8tq12AL7DKCRQRAFDxLRbt6tWr9f5WKDJck0igNSM2Fc3qZgoDNLGp6s4ls9RAo+cb7hj3/85SWUmbyZw13oJUIS4hVoU+JYkz+wdmCc221ZvLr9QR+Gurl1TITrB7fKQCBgQzELtrbF7PNhqvZTRrXMUGCHCXkc8y86qBpuPVICn2eylmAuycxlkOLFcJr5HeFckx8mUhfucazLWmaqDReLWi4OGHH85dSi/WdDHMd8A85TcoaqqkwWregckFjAcGg58BV5fJM8ZzxR0Wsi0xFYIzKmk0Xs2yMvtKlAsirZXJP0V34CU6IOc69Ahz9n/jqOKlEhcw09CkFxCP+YNHHnmkFTlN1YJ1MTCLFsI9UBLwUUV1vgJOA8EwQYScrz0jdE4VbjReI1M76BPX+lCQrBeQTXglA4j40gyCI444AuDMFBBBMIf2sMMOMy0WgkW8NKIiUMo9EFDQlNnbgBtg5V6QWGNGjSBtC3lPfSW5pIsGGh0vaKsXmSswmk6FD0EoyzwtoQRBV+FZs1wsVsCW4GQ1kcscbnvK8ebCKH7VQqzBAcQA7WPLWXiFXTZu24vmwpIaaDS/ltXRyEikX0W4NajUKAp8A3/FXK0WHxkxq8uDNUlDurz+QEmddxJrLl7BDh3CXMtwSn8tD0thGhs5ZgkwcCkxtiqIKuZsnX766VZ7FeLauHGjQuiM/3HgmF3LxvVhzlq7s+Vand5KLu+kgUbHt/Ta+nfsWNSOAAFzMw3qDafsa8AtJdaKIJ2CTqYqE5YjjKmqEcJCtdoh7EB6Fzb1S8DKTlmAmwmhWT+P2XvNOr3IhpT3Mb8ChIzp2bwnvbPOunsLcCZPQEIW8zQk0zJYTsWGhsGakcBFBpqLbYK4bWYzs3bXc8mzfYxXg/GSDzkbMQ4BW8R38fmXAWIZmdncZHPq9iteq3S8z5LFmwOmCp60Wf4sBuVOAx1HMli1UMFbyZfopIF+5ddOzxPlg4PCqq0ixkknn3yy4L7+nS0R8wf9j7F80Q8Vvb+SdDbaOumkk1S0dGGsRBQVWy+Tv8+nBuqG1yVLxl+376AVhp57bvz5iWUCB5P2hFVtBSOsb6lAXn25KUZskrUNj6zyYhTvOAjY0IoNYOxvvG+wJdxKUjsCqgZVYKoueQOpaYdr8/numtj2sNALZ81sHp0X3Wtu8YTz6SChiscZcqlXnzr8xb9etObPR37/D4b++V/GXnhh0o3K2WQWAGi6JU4lAF27dq1wvxD/qaeeKl4l+HTaaaeJbCnk5ILXNWvWALfIKkqOlCtLE0tq8bHvpgatdSy4VfEzzuZN1aBurayxPV898MnzR17z6sFFI4OHHDh06inD6Q1ZSdiHBwq8sCzidABt1ntjHois+opWv/a1r91000320FIRRjGxuGtyYAU0+VbRqnSCW265pQYI6K9HqBVed9t9cGh4whD1DoaHBl61x2+tWNMDMaU0K0iVlgW7xLAp8HH4w7GvKFP2qkCU3h9GhaZM2zrxxBMlAKgVaYdaRsaSXaRcnXvuubFXcn+98r6+21rZr88+O37X348eecTQksWDP/np2D33jfEHeD1AKcIkFdXyl0yXD3/4w746AFzQhDwUq+tnsErFgmmhLMC1IgbGZeeQlEMY+VZaIwm7+FVFp/r69ffdzdfKfuUT+Nd/G//flwa2PTG2ecvYvfeJ5k/iFS514nL+USkr1ihKdp+8Ksa3bQjko7DjEa1ysSgeAH4AKOdSIINNndKCxTIYCTKyWefQLDkQ1+60g6zvsNILN1wrfjWD8Gc/G//q320Pp0BCEo6MpYZpXCEIskRB7YknnkCTYQyAqZxXROtUVJS1nd4QTAOogWmAnuHrVJLshRfZkHuoGV53THkt9+q2bt2aNiNQA3DDOZUaaGmJV+Gee+7Br/AdVyh9qXI3lKVKaKBueC3xyBMioNay5vW0Tj0WQjUZCyUfoZliebjQzPfer0/dFLyyNcN72vZFdTnVVj4XLpQGGoFXvb/5VaYHdnI/icQKa2XULhQKy1+3bnjdQaNjJqYUwefY8F/mv6FSmh3IkUgAAB+9SURBVKmyQ3LiQ1lcqlbDBOtUGAdpfkuIkUxVigdRMZ1NwuVfQ5YsqYFajbcAZXiP/V71zrXDu+79q6fuefknm+RphSJEqjhTxQIQraUDFF533XVAbAli5dyuXKrSBZctWyYrgBPA3sRkJBXIcTFzS76BZTS1L1LwwQ9+ULSMj+zLX/4yJ5c0A64DaxZZldtqBtrnZ7jjjjvSfISSbyKLldFAreIFA4PD+6z66q5vXjay19sW7/uOsV8//8pzPwqvk7UwdPo0Iuhqo1ehKf5/QJTXYqogfpXjImog5eULX/gC+C5fvlw8TKYBCIoy2GcLQDXlqziCHANUrSm7FfAzfPOb34zU2KOOOsoxP67GORyyw6sMBGckUyt7YGTPN++y79uHRpYMDe8ytNu+i990hA481BHQ8R8WTX/FoBAmLVDUQEksIiQei4bPO+88y7vCMRmSUG4zgti9CL9iVlwby2taKQMNH3DAAXYxkKxIWADinHPOkfCVkg1m9DKy8LQaqJU9MPar58bHto8P7TKBzrFXRl9+lqc1VFA0QJXEV4mtACoDS3qAEoBDlpdccgnbYP/99/cfgtEqlpVvwIowl0sVkEW97373u4EY115xxRW49qKLLpIfY/qhheFXrVplbCfFdlrtZ4GZaqBW9sD49l+PvvRfi9948PjYK7/5+SMv/vCL49tfDmbdb7/9HACchGsEyZBFnxIADLOwKQNUtq4oqwEWfpUpC3mwyEjQv7MWHFuCQBIMc9ae3HbagNpNmzbB8Sc+8QklDAbJh+wBux5jbrZs2sVzpq8ky3fRQL+uP9DpkdDk0C57DC5+zegvfzYwPpYsyOIEV4XBr+kgGDe8XS2nijLRGoEojK9ajopRGGfTdTvdZy7fOQ3Uyh6gggnQvPKSvwk7oJBK0OJ5TXiaCqypp1pk4msqjOVjQ/sKpza4cy8m12qrgVqNt9o+YS6skwYyXuv0Nuv/LBmv9X/HdXrCpuDVRCvzWju9OcP/kjOxiJnL1SkPoVP7uXyuNNAIvBoD8aSKDnQaDPFbicSGZ6CLZgnEpMWWJQ27VMmn5lYDdfMPDA8PvOPtg7vuOvDkk+M/f3YyWgBn5mmZDQtt2JHnnxdWLIrPVZwWWPGlOdz8qY4t7q485mxhU8kAsC5TWzQB3DExsPIJyBMgLHwgyjW3ryS31kUDtcIrXJ568vAJfzoMr9v+ffyaa7c/+dTkszMG5LUIkwpo2WJA+ApkyQtTCR+IYJEDaFsZCnHJYoFRkAVK8mpJLYBXMsKzoC/6KnNABIuA2WDWgu2i4nxqDjVQK3tg770HP7p25LBDh9/5hxOoXXnscOrireMiFuW/UJYALAbFjuJSkgxtTBC5VEqgkBiwHnjggcKtgrFCVpCdJs9oIZYjth8BqtZaMRIxhy8mN9VWA7Xi1yWLB97w+onY1Y6Oe+CN+7WZeihtyseUbjIIVUcvlyq2GdLLY0q5L7GOhmMyCFU5Gcdajh8AlNvpmBUhT0AYFsW2VW4unHMN1Aqvzz0/fv9Do8uPGJax/cKL41vv+52NBQHOJzQYx4L+K1euZCewB4DPihimfVuXQP4KTMsxsAyMDCwCDAA5MWxZ9qsWWBdyEZGuFTfy6rBzDsouDdYtf+D33jxw9FFDe+01+OhjYw//4/jLv5p8dl08uzNoEs5gUVeOZQGReSr3xShKzrVykiBoIMUYMN6KlEKSiJaFwIRAtw888AAoS39hV7BiGQxdVJxPzaEG6oZXqtl9t/GRRYMvvzywYw3MyU8QapgKkaESnTtahdTAcViiwaBRolYSdsy98IEPfMDCBVIHcTDJGLTN4fvITXXXQK3sgXjUl15uY7Ym0zMM0DRIchDsGOVagNRoJ1UJYV8RswUMcWrItCwh2l3R+eycaKCGeJ0TvbRthJ0QEw3ans2FFWigVv6sCvSVL7GwGsh4XQD9JzfFAly7zy+Z8Toxl4vroDuGyHDKchGYG+MjABY7Gnd6+3wIPskmLoq5kNhv21OdWsvlSQM1tF8XLbLx0MBvfmNo/9sXDSVAyRVgkMQM5RaAP6ARFFBo1C/K9fTTT5OJedsKeQCI+UCeMZl9YuXEyDcgwFN744038n+FjyyqpPbVhUijNIE0dwDZjskERn21ZrcZi26p5VTG5bQaqBte99lnYOmhw1YaePzxsSd+PA61oQKkKNbPnwpkwlECBPJaYFHIgFtK0BV0br75Zu5VixUrER0w5ZAvVnKMGKwqFt02P/EjH/kIsFpYE+gtxq0di2489NBDmlI3tprnzYVsAiaCqy5XAVhNVIxdOR2bRA7BfgAWQObZtdBsJNNM+7ayQK3sAT3wpy4Yufzzi/7yU4v+9rJFBx04FJSGyUStDj74YDTJhyqFxUZcUCgBwE4vAMRFJYUAhkyCFT4AMvIyBIRbxQVEFuAP7IBSU/EBaLNkebhkGhx//PECXStWrBDXFXHArybH+jiwWoywggiZHwyeBjj/8av/FoZxRW1qOQOxpAZqhdd99hmU5jI4PgBX+752aOWKyaeDWvEqtIdEkZy8lsCNlTJQqRJ4xaCAqzzgCEaO0Z7QADZlNsBc0ehkGGgTobIiZMBoBHYdKHSsoo9EMCTN8HDp2Eop/X4cSDzA92g4JdOUfGdNFqsVXsdGB158cXI199Exx5NvFgRlqFgAC151/VACmkGB1hzg/A/exXnKsZ1ePhZowcHBx05h2SJQwBHmwFHLOnRwZC0EoVqawBWRNKSG+WFBA+xuDQTrIDmlHXWdYhjYfMa2Xk2G4IyevVb263//z/h1N4wed/T44iWDP/rx2JY7JtcfABHdOqygSeF+wKUjiMSOenBnDYx06DKzHnnkER29ZBfUCLuGUGYlyG6BSwYDSVwYm3aQZFdoFlvjaa4DyGPaah+C2QAyE2DdNh4aefLJJ2XZaoeNEWyKv13Ib8aF0v5eM3pzzRSuVf4A0lq82HhraLfdBn/8k7Gf/sdvVyAAGtjCl/ABcIgWC2JNSApcghe2AwLlkgx10+CFF+HMsEkvHwvGw6VT2JTpiaehWWugjFnRZ9gDUOjHoHqkKSrHzRpxD8qRtzW2zjjjDASsOlPEJdKeCM1EYfmnrhVeyz92GUlOVuwoh3AO7Uu/qCOPPJLRfNddd4VhUOZOskzSQK3sgbl9r4ZNOHVumQ9GGbuRCT63d9uQ1jJeO75oPf58JLbmyV4dNV7iRK38AyWeN4v0twaai9eiM7XkOwynbEnhLDYfGmgiXiGVK8rwfEYKZR6IinGjxgSEGdXNwnOlgVqtV0wpsDiyaGCP3Qell/iaxuAOOJgERUUHuPGtKswDxcfEOcWB5ZQQFJlYmphngMdKoQ9zMw25HHBsOcXnypPKXaUkD/PnCotl2qnVeGvCW/THQ3/xyZFddx188B/GPv8323/xi8lw17ve9S5rCwCruBR3KScovFoFY/Xq1TCKO9W98sor165dyykrtYUnSyQMNDn/N2/eHNMKpBNYFUZc4PDDD9cO0F988cVltJxl5koDtcLrbrsN/NX6Ra/fZ1D+wKuPGXjmP4evvGp7sCw/v378u9/9rnA/Fz0n6N13340aJW1deuml/Fa2IYg46u23387hL0YqDAam4l4AGpmBolYaIQb38q2+/e1vz9VryO2U1ECt8PqmNw6+du8JsHr4XZcM7v82K1xMhLhwpxnYenZ5rrD4rW99C6HCnGgT7CoX4hJTZdEq18uTZxIg4IhXFeMFTt12221WMbIJDGK22YEqJXWdxWavgVqNt558avyZZ8ZHRye2N/zlS+OP/JP8gQkV6eJlu0KnnbegUxwVWCN1VSGKlYoq1m9L+TAMQNYeWnp8a7kxcNm7ACr9IFwK7ASNXHPNNdIRu88ymP3ryS20aKBW4y1M98APx97whsFf/HLgxptGN94wamkiDwxnBkYSr/TssqgkRskikCstcP/ggw/KebWPIeM1MlZZtyJbzFYZBWQAV46BHABMrAXjLXmANpuVrG2KgVN5vFXlj6pu+QOgyQbgGmAUdEESIWeDL0MsSgLcLSXxPjgEDLC+//3vx8acRckqX1jDr1Ur+9W7BLXCrjAdX24IFUXT8dSDaIWNe/311+PdQHlcq+MF8on50UDd8Do/WppoVZZq4uD5u0puubsGajXe6v6osz9birpnf5ncQmcNZLx21s3/bzPbTWI+zyXDYz4v0mdtZ7x2fGGcr9IMOK06ScCTOS2SYHz4Yk3+VqIW11hMhW2p6KzZs+Y4dGqwWC7ky4PGlVZGuDkyNcQr/0AnF37q0Ntaoi3dPayIGsSyGsVTRU/Ce97zHkjlhT3uuOPM5ybGC8ZZ6yA+RSSBNd8tNHeBV6plbpnsBTELl8t5YUljdRtv7bXXwFHLhnbfffCJH409+qh1tiee1CvnQBUUwG08pjbSQF24U3DVOiuyXmyzIQQQUwK5Vx3zyKb1XYRkOWKBctu2bWIKVtbWGiSZW8spq1lzD6UW8OlCGDgK25qYJUJBxrU4dDlr8bRLKxeDwMQWgLGHt6toXJaCqY6QKnLBC2HGYsxtRNKmfFnBQFDDMVeas12w3oRTteLXocHxdWcPn79u5Lxzhs/9qEWBJhd3wU/QAw3mC8AotEkLhADRLLyoB7fyRQRm4cn6F/piCQbCs8gSnpQIiYGvioArWCA8ph05BrIIIE9ygimK5tDGEjLCY5bbQJCu60ICacuXL4c5Mn45Gn/f+96nBQKuLnXBhcQs4tIwF6BE235RflfY2qUDu01AZPdnrBVeX7fv4Ml/Nvym/Yb22nPowD8aWvEnQwKzwa9CViap8vkDh4QVGNLXQyoIQhUYYTuhLEwpkwukgEYoC+c5ZhKgYfSGGtGnj7rwpzUlEQZT0fRa82khW5aMs0qk1AClFrTvK+IU3T3mmGNUsQYHMoZ+8qjXf/wtAmx2l3QF13Xb/oO4r+7WTwJbd3+XTThbK7xu3z6+aGSi95/A6IQZMDmfGyL1uTp6PTLGAg5Ea2sNnbXUQRjCdv6rqE/Xm+u+CUfaK0lAUQh5kEoGlCE71jGAJ35Z9CnMC9+A6FqI1n9VmB/ko/GURAu4CBjv+v1E7w/0zAw3EHcCx+4wQdZNArFCY7smILL7M9bqJ/v8CwNXbxg964xhqLVexq2bJzOngAZ6dNYI1fxsAVVoYIYCIihAksyBwAf8WYCIWUnGAkS+gjhgHX300YRlFcK3nlof7eudd96plsXe4JvtG1vM+Rk45gfQ10Mtk5cxqtOHRW/CAVNV40yCb3zjG+oS075l5/ww/KjcKvMjTGfyDnAwtgZ9mZDd32UTzs5X/oBOUBecSKUyVe6558Db3jr4qj0Gnnpm/OmnpblMmrCx6BqQwYT+2utnGMCTNEKgZBXAMfD5wDR8IEsWqgNjLwcIjwVJWHXdNxmSmJXV61hreu0QQ5lklIA7GdMWtB97y0AkQ8JXMmwJl9B+WMbEGNNMAvcW15IS7g7tpuQmjbpoEvfn3MV5wSuSiNFMZTAtXojtZ7G20dEFufjcXBRk2RiMBNMZgpjnpt3+b2Ve7AG8soBMwGzta7ACFbPB8I7hW30H1eOQnhe89vgz9/7t6aDYIb1/n9XfYa38A9WrL1+xYg1kvFas8Hy5WWkg43VW6suVK9ZAz+E1ZTaFd4k3xwGlxP84SMcVKytfbsE1UOl4i4eSA5I3kQ+SL7Nl8Mv7yOXOneks3zi3PKepQmJSUng9+SYNmcONH6sHL7j68g1UrIH5mh879TEQp5CS/YCOPfZY3nKxcgGFJGZELHFEBgnXPdejgCcx2Xc87WJL0BkZJBz+zgJuXkN9qoabUFIdvyJLcBSo1JvbXEUIVOgyUSy8CnKKvNunBbJlRSkRurRigFXWRM8JC6h6JcpFOJvwbvIzTtVAdfYrmEYY001EdlyYqsr19dAMiMgV9QpXQrOvsSVLJIIIeEaCn7CkKOjUJ8klTdBAdXgVPZfEFGv6sUelHcXq1br42JwtUulglP0aoOQzh9rITIVgIX6QlUGSx1tNgGbbZ6zOHsCa8kFZohLz9Ptgl24odmyDVzKGWVKilMiT8hW5sgr8B3T5/AZbc7j7RVuN5MJe1sC85Lt0emBkGV4qB11knMoM2kk/DS+vjl8TCruANSO14XCc9vGrs1+nvZUskDUwrQb6Bq8CXcINxlv+T/tUbQV4J3zansqF/aKB3sJrmArJYEhfDcIsNWy+qJknttVUHh9admDCKoEweVOVdBBvQlDNPJMDDjigpbz4depxv7zF5txndfEtOg1Xq1l7wqrhzCoqGlysz8q3JYjAjUDYVFWzl3gGeGdFEzgKVOQ0kH5vZp/VWB2bUgLKQCyIYEYeSbOvuMPE0qCTR0z1gLI5KlxjPlYMML3brJWYzaJlE1C52IiBvgYJhFstD/t67ZdQHV5FBzDcxz72MfgANQHVlnisGUs+4HXKKaeYfWp7DAEt61dGeFZIDKRUxJTEzMnGqSa7QrZmRWitQnzWWWcJNxCD8mXLlvHjWkbANGsHrAjczB4AYjP93Yz/fLoWdNcCuIv6mrl6/vnnx0wvlzAHMKf39xpeq/MPwMHxxx8PGUgLbgARkorxWEuk8LOGiYnn0C04ctPabiCWkQIyB/AK08K2MAr6iFDqjOnX4dm96qqr4PWiiy7asGGDpBmcikdD6bGykOpiwtYT4O4VTgNlXmFES55jWPBiy5Yt4m0nnHACFpfk0GsvrOH3Ux1ewZS3P9SN7SAJOOA1rEblCs2Elidgnh3MiQsApXn61qj6yle+UnxPajEnGAPqxgfQY8YY5DnWlLM+RmkhkKrfdNNNSNp6KmeffTbUaoqNAfSRuEhYC+5NuZKGg6MHH786vIKFDle3C7ioEbkyLh2zF0866SS9uf6X0Yk7GQDm5q9cuVIyYeTEgFHshBH/E0wDo5hV9y0qlmREwuykZa0AVoSMGcYDOqd9EGTsolhVZDYib/djBQCEKiMsYsXE0uV68IU1/Jaqs1/RHr4EFJ2sLthSEeAFr/6DcuxjAces0nvvvVd2gUUl9Mgga1sLaFNL/oADsVzU6wC8WMAqWh8FVRNgAGDouJCzWFbnrhbK9JXB6hdi3qly17UXFxZ3G6wCFoVfCE7ViPYRswOX0FTD8dFrj19pPLbTw+OzGInHQaev3aunWiFWbMpPwtANbdsNBou7VlvhTu3n8t7RQHX2QJdnDrASiINOXzu10FIrxIqFzADUzrQwuuoi3Kn9XN47GugJvFagjjydvwIlV3CJ3h0Ccz/FCuv6bopgyMYemRUoJV+iZzXQW3gFzUCn/2ZuCQTwuQp68d3KHIjwFVWGWJKMkqKK49RUyVTes+8j31h3DVRqDxjFo0zeTeP62M6qeHPcTDyjnPZG6+FGZXcKGYhaGdSLeIXpqQXhU/07GY2Y2iXEoE2eAUN73rHYA8NXY3zhLr4qwiK0asE9HwKXQjjCuqsmn+1BDVTnz8KUkCTEZR6sKBfHFtSmoRXmUy46oN+XQhCzt5cuXQpefPvQJkzFmQrKQl88U9brjBwA02hBnBfMWQ5XcSn5CUrEXeFVPFY6Af8UW8LVOchcOpbF7MGXkW9pWg1UZw+wR3nmYVGqitCraD66TfcHrwoFETZt2gSaaJKXFOxEAThQLRQsoIVHef4hz2LqvLPYF7jFzPhf7fEuScVXO2fcvuPDnIhkA9Ey3Bxg5eh1EMtkT6uaLNCDGqjOHgAvUAsVABYsKon8AdDkmQdfoHSADlugrFaYnqo4IBaSyvX1vFTW+w2q9qvA3LhciNVViGFTYgwAwQiWAPm8dkEPArHkLVXHr6BjCmGETFkCsWK/u4Qw6xLIqDJ7Fvt+6EMfestb3pLsBIBGt1z98E1YRAo6kajsLZ17y/iJsG0zTjvtNAJMVT7X0ILLMWdxtkwXN8DwTe2XVFMW6xENVGe/Agp6E+QEHVHQ2OYqtIA1pfYJmWJWYyZdOUgJREEnyzVCr2rFV306No2slFiBWjnWJMbYjXwDnPr444/LiIVULWDWWJcd9bIu2LU50Noj+JvpbVQdj+UE0E2DF9ile8V2mNIoyl4/WJDrShYVo5NAMKj+PUb0zhqEGVoxIWSobN26FRBDJhpRBfp9ApGpMJUXM8Jmqqwsv+AaqBqvXR44IgKACFJIsS0FAiIzICwBSEXJ2TPVRaX1O1XdeGta3YUx0F0MOvX1MYTqLpnP1lIDPYTXMvpNXX8Z4bYyaYiWh1xt9dPjhdX5B+ZEEXy39v9lD+xca8DKRJYebki3cy3kWgurgUrxCi4+iC28WvHkTFKjKLEAISvGq0JnIZJX33HIG4E566tyYVWWLneVWkpUFLLir43GBcZg0VkySvx3VrOO43JCD7LFeQyM/FzC/6ioiuBtcuJqVjsukSou7HvKVw8NVGcPgAJ2XLNmjdgpZ9N3vvOd2NhXgEoh6BhmGT+ZqsUDYHar4RQMffaznxUVW7VqFXcVeR5c7cSe2Y4BkSTvgcLLL79cRXNrhcRg9Hvf+x7/q+m42uT8MkmBq4uYKBoskuGjVe6669evF7M988wzecfA/YorrrBOssgwhzHX78aNG5VnuPSIBqrDq5QUm6ZiR6CRKsAVev311wd7IVSTYO3NDjpmpwAi56sAwaWXXopQGQAXX3yx0Rj+w7L+83wR9oF1Xi0tf/rTnxZ30P6FF17IlRvTsqV3aco8WJMLHMMrpbuiy/nNEDPNy39c6wdzySWX+D2Y3SUSITbm1H333efH4IYzXnsErG6jOryCKbRFhxu5AeGIdRPcsTCkT0d4OujVq1c7RoFhDBAGVjJCCajRJ5y4ys0WtOiLcmDVMtNCO84CnK+wDtlhDAhPKI+ru6KUAw5gcET5n/vc5/T7wmZxJ5pyOWc51HxSld55Z02+k+rw6t1boMWSLQCE0sSrQDBUrxfWIzuGG/0+WKNe5gHcqGUWa5gHqE4ES6YLgEqKlbnCxMSg4lt6eUjFuEK7Ag1aI6kiUwG/ahAcVQG+wF8sS2/KIUoGa2wK+kAM36xb7Ou6fi2B2ibjo9eevbp4LASIhQZYYeiBBx4Ax8CohAFIlQ2jC5aiJVgQG7briKUICqvKvZLnqpZTuBPuA+s4GEECnJYV+g9wvsKu34PlBQzUzBFnCts4WAsoFsTRsOnjLFfpCso1C6myE+UwQLwruitVYk367O7tKchWGt8KaxXDRUefyJWPCWJgSEmcjVPF4xatBU2mwXtIQnnsY3/IIYeI6E7dlgOULWuAwuES7ttepXh76YZ76p01+Waq49fAYuAs/ofewy0gB8V4PJ110HIcJel/glqSVCJRkGmBqs3bDm9ASy3sjjhjRa1iU0WxuM9i+03GR689e6X8WsHDB3MX+bvlol1OVXB7+RKz1EB1460uN8obwKaM8Y3/BknhUlUF+/o4IIAF03EECNjETFXl6azjECZgtBQtKyGmbkmwqqXlLjecTy2UBhYAry2gMQYyy4rdCSJsSkMuLljuesckDfaZtrp4jgX+rzvvvBMKDb+kFLIfoJCjSv/OV8AnYKmsMCp4W33dvHmzuV98tArZGyTLJMqwccUdrImU3BcL9W7ydadqoNJ4LPKLgCoPf7oVNqUhvFCWYRDYGaebd2XUHytY8UNBLatUiIuYYIGKPFMcUqxVlGmsZsasEpEttZzFtY6VuwpYI0stM1uDMrVmEhiPBOeAH4lr+W3wuaoI2QZqbgBe/TamKiuXLLgGquNXMMJ5K1asQJYcT1KtuUjj+fEfEjUfBl6BhqQgKicrOEItwEEktjOEwqwRpuLJQoG4ed26dUDMfuANMG2Gf4pLC/ojH9x/LWgqVtN2OXgFRwK8aSJnYraqc7hi7tNPP50HjQtMSGLBX0y+gbYaqI5fcRhfktnYCEw3bX4skMU9QbBNYoVSER7EABmAojrMx2kKWyZni7viWssREI5a2JrNANkENCVwgGWhzQxvPwa4JOaivKqaQr2IPCq6CsPA4p6QDa/WQhSwFYxwURN1RBnCSm6rr1y4sBqojl9BKqJKcAZhgKgkkIFfJQwgSwKQxCrFiGJODnwNgxKO4Uk3DbLJAvaV/x+O9fUYVOjL+gbAfcstt8iSodkILiBdkV5XUTFwbF6XbAEUy6hA56DsZ+CrQm267sK+lXz1ThqoDq8gJSIgmwRiYEsQNbpsd+aUcBRUXXDBBSALxyiQtRrAlfgCvjfccEOMutCzFlDpiSeeKHkAv7Ir2KPasQzMZZdd5n9YvUqAD7P6D6CsWMfMhkBtADfphYHhopbbMNrzy2k520l9ubxiDVQXL0ClgIXwUKZgbMRjcS1kRC4LqvNxzOJEh9CsijQu4BZrhSdjpvgqKktMU34A2hE4xZ2o0W/AMQ+D6iCLkpVHEoISp7QpdQF2/QAAnYxmCbglTgYmR2xc75fjVrNVUDEWy1yu0ngBdOp50SfcFB2cRlSo1CdZtOlAYdBh9NH6bh8lIQBSgSpfFZLRlBLHLuQSyslThBLl8fOI/4RDxllihMMwiAaLt1dGj1mmGg3MgT2ApUreK9AgvKnCCRyJ0tJBi3DAWmGLQPqamgpjozvsigaJNjUeKThT7zCX9IgGqvMP9MgD59voaw1kvPb162vczWe8Nu6V9/UDZ7z29etr3M1nvDbulff1A2e89vXra9zNZ7w27pX39QNnvPb162vczWe8Nu6V9/UDZ7z29etr3M1nvDbulff1A2e89vXra9zNT2xh1biHzg/ctxoYsvRkcfZf3z5IvvFGaGDE1FOzn6Uwt830a4QO8kP2jwbkN4+YAhVrpPXPbec7bagGJvK15dtDbUMVkB+7rzTwf/msdcuFHiC6AAAAAElFTkSuQmCC;" vertex="1" parent="1">
                    <mxGeometry x="130" y="30" width="371.08" height="1110" as="geometry"/>
                </mxCell>
            </root>
        </mxGraphModel>
    </diagram>
</mxfile>